<svg width="48" height="48" viewBox="0 0 48 48" fill="none" xmlns="http://www.w3.org/2000/svg">
<g clip-path="url(#clip0_5621_15735)">
<path d="M26.6867 0.320078H3.96108C3.48315 0.318956 3.00968 0.412541 2.56781 0.595475C2.12593 0.778409 1.72432 1.0471 1.38597 1.38616C1.04763 1.72521 0.77919 2.12798 0.596034 2.57139C0.412879 3.0148 0.318602 3.49015 0.318604 3.97021V31.7633C0.318604 32.2426 0.412599 32.7173 0.595224 33.1601C0.777849 33.603 1.04553 34.0054 1.38297 34.3443C1.72042 34.6833 2.12103 34.9521 2.56192 35.1356C3.00282 35.319 3.47536 35.4134 3.95259 35.4134H44.0475C45.0112 35.4134 45.9356 35.0288 46.6171 34.3443C47.2986 33.6598 47.6814 32.7314 47.6814 31.7633V3.97021C47.6814 3.49087 47.5874 3.01622 47.4048 2.57337C47.2222 2.13051 46.9545 1.72812 46.6171 1.38918C46.2796 1.05023 45.879 0.781365 45.4381 0.597928C44.9972 0.414492 44.5247 0.320078 44.0475 0.320078H26.6867Z" fill="#FFBA93"/>
<path d="M44.0474 35.7333H3.95257C2.90463 35.7322 1.89993 35.3136 1.15892 34.5693C0.417915 33.825 0.0011244 32.8158 0 31.7632L0 3.97013C0.0011244 2.91754 0.417915 1.90837 1.15892 1.16407C1.89993 0.419773 2.90463 0.0011294 3.95257 0L26.6782 0C26.7627 0 26.8438 0.0337142 26.9035 0.0937258C26.9632 0.153737 26.9968 0.235131 26.9968 0.32C26.9968 0.404869 26.9632 0.486263 26.9035 0.546274C26.8438 0.606286 26.7627 0.64 26.6782 0.64H3.95257C3.07344 0.640565 2.23048 0.991599 1.60885 1.616C0.987211 2.2404 0.637731 3.0871 0.637168 3.97013V31.7632C0.637731 32.6462 0.987211 33.4929 1.60885 34.1173C2.23048 34.7417 3.07344 35.0928 3.95257 35.0933H44.0474C44.9266 35.0928 45.7695 34.7417 46.3912 34.1173C47.0128 33.4929 47.3623 32.6462 47.3628 31.7632V3.97013C47.3623 3.0871 47.0128 2.2404 46.3912 1.616C45.7695 0.991599 44.9266 0.640565 44.0474 0.64H29.3926C29.3081 0.64 29.227 0.606286 29.1673 0.546274C29.1075 0.486263 29.074 0.404869 29.074 0.32C29.074 0.235131 29.1075 0.153737 29.1673 0.0937258C29.227 0.0337142 29.3081 0 29.3926 0L44.0474 0C45.0954 0.0011294 46.1001 0.419773 46.8411 1.16407C47.5821 1.90837 47.9989 2.91754 48 3.97013V31.7632C47.9989 32.8158 47.5821 33.825 46.8411 34.5693C46.1001 35.3136 45.0954 35.7322 44.0474 35.7333Z" fill="#1D2939"/>
<path fill-rule="evenodd" clip-rule="evenodd" d="M18.3888 16.0149C18.3888 16.3453 18.2912 16.6682 18.1085 16.9429C17.9258 17.2176 17.666 17.4317 17.3622 17.5581C17.0583 17.6846 16.7239 17.7176 16.4013 17.6532C16.0787 17.5887 15.7824 17.4296 15.5498 17.196C15.3173 16.9624 15.1589 16.6648 15.0947 16.3408C15.0305 16.0167 15.0635 15.6809 15.1893 15.3756C15.3152 15.0704 15.5284 14.8095 15.8018 14.626C16.0753 14.4425 16.3968 14.3445 16.7258 14.3445C17.1668 14.3445 17.5898 14.5205 17.9017 14.8337C18.2136 15.147 18.3888 15.5719 18.3888 16.0149Z" fill="#FCE8CB"/>
<path d="M16.7257 18.0052C16.3338 18.0052 15.9507 17.8885 15.6248 17.6698C15.2989 17.4511 15.045 17.1402 14.895 16.7765C14.745 16.4128 14.7058 16.0126 14.7822 15.6265C14.8587 15.2404 15.0474 14.8858 15.3245 14.6074C15.6017 14.329 15.9548 14.1395 16.3391 14.0627C16.7235 13.9859 17.122 14.0253 17.4841 14.1759C17.8461 14.3266 18.1556 14.5817 18.3734 14.909C18.5911 15.2363 18.7073 15.6212 18.7073 16.0148C18.7062 16.5424 18.4971 17.048 18.1257 17.421C17.7543 17.794 17.2509 18.0041 16.7257 18.0052ZM16.7257 14.6644C16.4598 14.6644 16.1999 14.7436 15.9788 14.892C15.7577 15.0404 15.5854 15.2513 15.4836 15.498C15.3819 15.7448 15.3553 16.0163 15.4071 16.2783C15.459 16.5402 15.5871 16.7808 15.7751 16.9697C15.9631 17.1585 16.2027 17.2872 16.4634 17.3393C16.7242 17.3914 16.9946 17.3646 17.2402 17.2624C17.4859 17.1602 17.6959 16.9871 17.8436 16.7651C17.9913 16.543 18.0702 16.2819 18.0702 16.0148C18.0696 15.6568 17.9278 15.3137 17.6758 15.0606C17.4238 14.8074 17.0821 14.665 16.7257 14.6644Z" fill="#1D2939"/>
<path d="M31.3594 15.2043C31.3594 19.2939 27.4366 25.5744 23.9852 25.5744C20.6911 25.5744 16.6111 19.2939 16.6111 15.2043C16.6111 14.2316 16.8018 13.2684 17.1724 12.3698C17.543 11.4711 18.0862 10.6546 18.7709 9.9668C19.4557 9.27901 20.2686 8.73342 21.1633 8.36118C22.0579 7.98895 23.0169 7.79736 23.9852 7.79736C24.9536 7.79736 25.9125 7.98895 26.8072 8.36118C27.7019 8.73342 28.5148 9.27901 29.1996 9.9668C29.8843 10.6546 30.4275 11.4711 30.7981 12.3698C31.1687 13.2684 31.3594 14.2316 31.3594 15.2043Z" fill="#FCE8CB"/>
<path d="M23.9852 25.8944C22.3477 25.8944 20.4574 24.512 18.8008 22.1034C17.2546 19.8549 16.2925 17.2117 16.2925 15.2042C16.2925 13.1549 17.103 11.1895 18.5456 9.74046C19.9883 8.29138 21.945 7.47729 23.9852 7.47729C26.0255 7.47729 27.9821 8.29138 29.4248 9.74046C30.8675 11.1895 31.678 13.1549 31.678 15.2042C31.678 19.5221 27.6256 25.8944 23.9852 25.8944ZM23.9852 8.11729C22.1145 8.11899 20.3209 8.86619 18.998 10.1949C17.6752 11.5236 16.9313 13.3252 16.9296 15.2042C16.9296 19.0229 20.8716 25.2544 23.9852 25.2544C25.4486 25.2544 27.2114 23.9402 28.7045 21.7429C30.1445 19.6096 31.0408 17.1114 31.0408 15.2042C31.0391 13.3252 30.2952 11.5236 28.9724 10.1949C27.6496 8.86619 25.856 8.11899 23.9852 8.11729Z" fill="#1D2939"/>
<path d="M22.1011 15.1212C22.1011 15.2642 22.0589 15.404 21.9798 15.5229C21.9007 15.6419 21.7882 15.7346 21.6567 15.7893C21.5251 15.844 21.3803 15.8584 21.2407 15.8305C21.101 15.8026 20.9727 15.7337 20.872 15.6325C20.7713 15.5314 20.7027 15.4025 20.675 15.2622C20.6472 15.122 20.6614 14.9765 20.7159 14.8444C20.7704 14.7122 20.8627 14.5993 20.9811 14.5198C21.0995 14.4404 21.2387 14.398 21.3811 14.398C21.4758 14.3977 21.5695 14.4162 21.657 14.4524C21.7445 14.4887 21.824 14.5419 21.8909 14.6091C21.9578 14.6764 22.0108 14.7562 22.0469 14.8441C22.083 14.9319 22.1014 15.0261 22.1011 15.1212Z" fill="#1D2939"/>
<path d="M27.3091 15.1212C27.3091 15.2642 27.2669 15.404 27.1878 15.5229C27.1087 15.6419 26.9962 15.7346 26.8647 15.7893C26.7331 15.844 26.5883 15.8584 26.4487 15.8305C26.309 15.8026 26.1807 15.7337 26.08 15.6325C25.9793 15.5314 25.9108 15.4025 25.883 15.2622C25.8552 15.122 25.8695 14.9765 25.9239 14.8444C25.9784 14.7122 26.0707 14.5993 26.1891 14.5198C26.3075 14.4404 26.4467 14.398 26.5891 14.398C26.6838 14.3977 26.7775 14.4162 26.865 14.4524C26.9525 14.4887 27.032 14.5419 27.0989 14.6091C27.1658 14.6764 27.2188 14.7562 27.2549 14.8441C27.291 14.9319 27.3094 15.0261 27.3091 15.1212Z" fill="#1D2939"/>
<path d="M21.1838 17.28C21.1838 17.7941 20.6274 18.2101 19.9435 18.2101C19.2596 18.2101 18.7031 17.7835 18.7031 17.28C18.7031 16.7765 19.2596 16.3499 19.9435 16.3499C20.6274 16.3499 21.1838 16.7552 21.1838 17.28Z" fill="#F5978A"/>
<path d="M29.2673 17.28C29.2673 17.7941 28.713 18.2101 28.027 18.2101C27.341 18.2101 26.7866 17.7835 26.7866 17.28C26.7866 16.7765 27.3431 16.3499 28.027 16.3499C28.7109 16.3499 29.2673 16.7552 29.2673 17.28Z" fill="#F5978A"/>
<path d="M24.0701 6.16113C19.8563 6.16113 16.439 9.44433 16.439 13.4913C16.4378 13.8838 16.5099 14.2731 16.6514 14.639C16.7193 14.8267 17.8131 14.2251 17.9066 14.1611C18.3692 13.8239 18.7544 13.3911 19.0365 12.8918C19.1498 12.6922 19.2471 12.4839 19.3275 12.2689C19.5802 11.6033 20.2641 9.75153 20.9565 9.8966C21.9786 10.1034 23.019 10.2056 24.0616 10.2017C25.1107 10.2071 26.1575 10.1048 27.1859 9.8966C27.8804 9.75153 28.5643 11.6033 28.8149 12.2689C28.8918 12.484 28.9862 12.6924 29.0974 12.8918C29.5668 13.7067 30.359 14.4833 31.3253 14.6262C31.3253 14.5793 31.3848 14.5622 31.4294 14.5473C31.7459 14.4321 31.7013 13.7451 31.7013 13.4913C31.7034 9.44433 28.2861 6.16113 24.0701 6.16113Z" fill="#475467"/>
<path d="M16.7213 14.9909C16.6795 14.9923 16.6379 14.9865 16.5981 14.9739C16.5428 14.9576 16.492 14.9288 16.4496 14.8895C16.4072 14.8503 16.3744 14.8018 16.3538 14.7477C16.1983 14.3472 16.1176 13.9212 16.116 13.4912C16.116 9.2736 19.682 5.84106 24.0657 5.84106C28.4494 5.84106 32.0176 9.2736 32.0176 13.4912V13.5723C32.0176 13.9477 32.0346 14.6389 31.5609 14.8373C31.5482 14.8501 31.5376 14.8629 31.5248 14.8736C31.4902 14.9013 31.4503 14.9216 31.4075 14.9333C31.3648 14.9451 31.3202 14.948 31.2763 14.9419C30.3397 14.8053 29.4222 14.0885 28.819 13.0517C28.6966 12.8345 28.5922 12.6077 28.5068 12.3733L28.4898 12.3328C27.6933 10.2208 27.3089 10.1867 27.2409 10.1995C26.1973 10.4118 25.1348 10.5161 24.07 10.5109C23.0058 10.5161 21.944 10.4118 20.9011 10.1995C20.8331 10.1845 20.4466 10.2165 19.6501 12.3328L19.6353 12.3733C19.5507 12.6073 19.4477 12.8342 19.3273 13.0517C19.0197 13.5921 18.5995 14.0593 18.0954 14.4213C18.0954 14.4213 17.1885 14.9909 16.7213 14.9909ZM24.07 6.48106C20.0346 6.48106 16.7574 9.6256 16.7574 13.4912C16.755 13.7701 16.7981 14.0476 16.8848 14.3125C17.1784 14.1923 17.4624 14.0496 17.7344 13.8859C18.1576 13.5758 18.5102 13.1787 18.7687 12.7211C18.8728 12.5413 18.963 12.3537 19.0384 12.16L19.0533 12.1195C19.5885 10.6965 20.1981 9.408 21.0264 9.58293C22.0267 9.78665 23.0451 9.88673 24.0657 9.8816C25.087 9.88673 26.1061 9.78665 27.1071 9.58293C27.9354 9.408 28.5471 10.6965 29.0823 12.1131L29.0972 12.1557C29.1725 12.355 29.2641 12.5477 29.3712 12.7317C29.8448 13.5552 30.5308 14.1248 31.2296 14.2827L31.3061 14.2507C31.3443 14.1995 31.3868 14.0373 31.3804 13.5829V13.4912C31.3846 9.6256 28.1032 6.48106 24.07 6.48106Z" fill="#1D2939"/>
<path d="M17.7472 7.60112C18.9982 9.18406 20.4956 10.8801 22.3009 11.3878C25.2127 12.2198 30.3717 11.1745 30.3717 6.97179C30.3717 4.27739 28.1246 1.02406 23.9299 3.50086C18.7348 6.57286 15.7168 0.667789 15.7168 3.36219C15.7168 4.21552 16.0587 5.06886 16.5069 5.83472L17.7472 7.60112Z" fill="#475467"/>
<path d="M24.3441 11.9722C23.6268 11.9779 22.9122 11.8846 22.2202 11.6949C20.3597 11.1637 18.8517 9.50823 17.5009 7.79943L17.4882 7.7845L16.2478 6.0181L16.233 5.99463C15.6744 5.02823 15.4004 4.1685 15.4004 3.3621C15.4004 3.00583 15.4429 2.5749 15.7636 2.39143C16.1438 2.1781 16.5876 2.44263 17.2503 2.84583C18.5756 3.6437 20.793 4.97916 23.7643 3.22556C26.0199 1.89223 27.5873 2.2421 28.5027 2.7669C30.0107 3.63516 30.6861 5.50396 30.6861 6.9717C30.6981 7.67619 30.5416 8.37329 30.2296 9.00439C29.9177 9.63548 29.4595 10.1821 28.8935 10.5984C27.6361 11.5648 25.9115 11.9722 24.3441 11.9722ZM18.0022 7.40903C19.2765 9.0325 20.708 10.609 22.3922 11.0805C24.1338 11.5776 26.7972 11.3984 28.5154 10.0949C29.0058 9.73951 29.4024 9.26925 29.6707 8.72498C29.939 8.1807 30.071 7.57885 30.0553 6.9717C30.0553 5.6917 29.4797 4.06183 28.1926 3.3237C27.0882 2.6837 25.6715 2.84583 24.0935 3.7781C20.7972 5.72583 18.2804 4.20476 16.9296 3.3941C16.6653 3.21396 16.38 3.06708 16.08 2.95676C16.041 3.08809 16.0252 3.22528 16.0333 3.3621C16.0354 4.0533 16.2776 4.79996 16.7788 5.66183L18.0022 7.40903Z" fill="#1D2939"/>
<path d="M23.9851 21.5318C23.4939 21.5592 23.0061 21.4341 22.5881 21.1735C22.1701 20.9128 21.8422 20.5291 21.6489 20.0747C21.6125 19.998 21.608 19.91 21.6363 19.83C21.6646 19.75 21.7233 19.6845 21.7997 19.648C21.876 19.6115 21.9636 19.607 22.0433 19.6354C22.1229 19.6638 22.1881 19.7228 22.2244 19.7995C22.577 20.544 23.1335 20.8918 23.9745 20.8918C24.3373 20.9086 24.6968 20.816 25.0068 20.6259C25.3168 20.4358 25.5631 20.1569 25.714 19.8251C25.7481 19.754 25.8072 19.6981 25.8799 19.6681C25.9526 19.6382 26.0337 19.6362 26.1077 19.6627C26.1818 19.6891 26.2434 19.7421 26.2809 19.8115C26.3184 19.8808 26.329 19.9617 26.3108 20.0384C26.1154 20.4918 25.7896 20.8761 25.3753 21.1422C24.9609 21.4083 24.4768 21.5439 23.9851 21.5318Z" fill="#1D2939"/>
<path d="M23.6964 25.5616C21.5707 25.5593 19.5326 24.7101 18.0295 23.2003C16.5264 21.6905 15.681 19.6434 15.6787 17.5082C15.6787 17.4234 15.7123 17.342 15.772 17.282C15.8318 17.2219 15.9128 17.1882 15.9973 17.1882C16.0818 17.1882 16.1628 17.2219 16.2226 17.282C16.2823 17.342 16.3159 17.4234 16.3159 17.5082C16.3181 19.4737 17.0964 21.358 18.4801 22.7478C19.8637 24.1375 21.7397 24.9193 23.6964 24.9216C23.7809 24.9216 23.8619 24.9553 23.9217 25.0153C23.9814 25.0753 24.015 25.1567 24.015 25.2416C24.015 25.3264 23.9814 25.4078 23.9217 25.4678C23.8619 25.5279 23.7809 25.5616 23.6964 25.5616Z" fill="#1D2939"/>
<path d="M24.875 24.0684H23.2799C22.8447 24.0684 22.4919 24.4227 22.4919 24.8598V25.3142C22.4919 25.7513 22.8447 26.1057 23.2799 26.1057H24.875C25.3101 26.1057 25.6629 25.7513 25.6629 25.3142V24.8598C25.6629 24.4227 25.3101 24.0684 24.875 24.0684Z" fill="#EF6D7A"/>
<path d="M24.8749 26.4235H23.2799C22.9864 26.4235 22.705 26.3064 22.4974 26.0979C22.2899 25.8895 22.1733 25.6068 22.1733 25.312V24.8598C22.1739 24.5652 22.2907 24.2828 22.4981 24.0745C22.7055 23.8661 22.9866 23.7489 23.2799 23.7483H24.8749C25.1682 23.7489 25.4494 23.8661 25.6568 24.0745C25.8642 24.2828 25.9809 24.5652 25.9815 24.8598V25.312C25.9815 25.6068 25.8649 25.8895 25.6574 26.0979C25.4499 26.3064 25.1684 26.4235 24.8749 26.4235ZM23.2799 24.3883C23.1556 24.3889 23.0365 24.4387 22.9486 24.527C22.8607 24.6153 22.8111 24.7349 22.8105 24.8598V25.312C22.8111 25.4369 22.8607 25.5565 22.9486 25.6448C23.0365 25.7331 23.1556 25.7829 23.2799 25.7835H24.8749C24.9994 25.7835 25.1188 25.7338 25.2068 25.6454C25.2949 25.557 25.3443 25.4371 25.3443 25.312V24.8598C25.3443 24.7347 25.2949 24.6148 25.2068 24.5264C25.1188 24.438 24.9994 24.3883 24.8749 24.3883H23.2799Z" fill="#1D2939"/>
<path d="M13.8647 16.7446V17.0902C13.8647 17.5185 14.0341 17.9293 14.3357 18.2321C14.6372 18.535 15.0461 18.7051 15.4725 18.7051H16.354C16.4722 18.7051 16.5857 18.6579 16.6693 18.5739C16.753 18.4899 16.8 18.376 16.8 18.2571V13.6235C16.8 13.5047 16.753 13.3908 16.6693 13.3068C16.5857 13.2227 16.4722 13.1755 16.354 13.1755H15.4725C15.2612 13.1755 15.052 13.2174 14.8568 13.2987C14.6616 13.38 14.4842 13.4991 14.3349 13.6493C14.1856 13.7995 14.0672 13.9778 13.9865 14.1739C13.9059 14.3701 13.8645 14.5803 13.8647 14.7926V16.7446Z" fill="#EF6D7A"/>
<path d="M16.3539 19.0251H15.4725C14.9618 19.0245 14.4721 18.8205 14.111 18.4577C13.7498 18.095 13.5467 17.6031 13.5461 17.0901V14.7925C13.5461 14.2792 13.749 13.7868 14.1102 13.4236C14.4714 13.0604 14.9614 12.856 15.4725 12.8555H16.3539C16.5565 12.856 16.7507 12.9371 16.894 13.081C17.0372 13.2249 17.118 13.42 17.1185 13.6235V18.2571C17.1185 18.3579 17.0988 18.4578 17.0603 18.551C17.0219 18.6441 16.9656 18.7288 16.8946 18.8001C16.8236 18.8714 16.7393 18.928 16.6465 18.9666C16.5538 19.0052 16.4543 19.0251 16.3539 19.0251ZM15.4725 13.4955C15.1304 13.496 14.8025 13.6329 14.5608 13.8761C14.3191 14.1193 14.1833 14.4489 14.1833 14.7925V17.0901C14.1833 17.4336 14.3191 17.7629 14.5609 18.0058C14.8027 18.2486 15.1306 18.3851 15.4725 18.3851H16.3539C16.3877 18.3851 16.4201 18.3716 16.444 18.3476C16.4679 18.3236 16.4814 18.291 16.4814 18.2571V13.6235C16.4814 13.5895 16.4679 13.557 16.444 13.533C16.4201 13.509 16.3877 13.4955 16.3539 13.4955H15.4725Z" fill="#1D2939"/>
<path d="M32.2853 18.7051H31.7183C31.5819 18.7051 31.4512 18.6507 31.3548 18.5539C31.2584 18.457 31.2043 18.3257 31.2043 18.1888V13.6896C31.2043 13.5527 31.2584 13.4214 31.3548 13.3246C31.4512 13.2277 31.5819 13.1733 31.7183 13.1733H32.2853C32.7752 13.1733 33.2451 13.3685 33.5919 13.7161C33.9387 14.0636 34.1341 14.5351 34.1352 15.0272V16.8405C34.1361 17.0851 34.0888 17.3274 33.9963 17.5536C33.9037 17.7798 33.7675 17.9854 33.5957 18.1586C33.4238 18.3318 33.2196 18.4692 32.9947 18.563C32.7699 18.6568 32.5288 18.7051 32.2853 18.7051Z" fill="#EF6D7A"/>
<path d="M32.2832 19.0251H31.7161C31.4957 19.0251 31.2842 18.9373 31.1281 18.7809C30.9721 18.6245 30.8841 18.4124 30.8835 18.1909V13.6917C30.8841 13.4701 30.972 13.2577 31.128 13.101C31.284 12.9443 31.4955 12.856 31.7161 12.8555H32.2832C32.8581 12.856 33.4094 13.0857 33.8159 13.4941C34.2225 13.9024 34.4511 14.4561 34.4517 15.0336V16.8533C34.4494 17.4297 34.2201 17.9818 33.8137 18.3888C33.4073 18.7957 32.857 19.0245 32.2832 19.0251ZM31.7161 13.4955C31.6643 13.4955 31.6146 13.5161 31.5779 13.553C31.5413 13.5898 31.5207 13.6397 31.5207 13.6917V18.1909C31.5213 18.2426 31.5421 18.292 31.5787 18.3283C31.6153 18.3647 31.6647 18.3851 31.7161 18.3851H32.2832C32.6886 18.3856 33.0777 18.2247 33.3651 17.9376C33.6526 17.6504 33.815 17.2605 33.8166 16.8533V15.04C33.8172 14.8374 33.7779 14.6366 33.7011 14.4493C33.6243 14.2619 33.5115 14.0916 33.369 13.9481C33.2266 13.8046 33.0573 13.6908 32.871 13.6131C32.6847 13.5354 32.4849 13.4955 32.2832 13.4955H31.7161Z" fill="#1D2939"/>
<path d="M18.8079 47.7868C18.7204 47.7868 18.6364 47.7533 18.5745 47.6938C18.5126 47.6343 18.4778 47.5535 18.4778 47.4694V45.2476C18.4968 45.1803 18.5383 45.121 18.5959 45.0787C18.6534 45.0364 18.7239 45.0134 18.7964 45.0134C18.8688 45.0134 18.9393 45.0364 18.9969 45.0787C19.0545 45.121 19.0959 45.1803 19.115 45.2476V47.4694C19.1152 47.5498 19.0836 47.6274 19.0266 47.6863C18.9696 47.7452 18.8914 47.7811 18.8079 47.7868Z" fill="#1D2939"/>
<path d="M9.73629 47.3536H15.5045V44.5418C15.5045 44.1343 15.424 43.7309 15.2677 43.3544C15.1113 42.978 14.8821 42.636 14.5932 42.3479C14.3042 42.0598 13.9612 41.8312 13.5837 41.6753C13.2061 41.5194 12.8015 41.4391 12.3929 41.4391H10.3227V40.1067C9.82527 40.4894 9.22288 40.7123 8.59547 40.7457C7.97941 40.7092 7.38917 40.4863 6.90345 40.1067H6.8682V41.4455H4.81086C3.9856 41.4455 3.19414 41.7724 2.6106 42.3543C2.02705 42.9361 1.69922 43.7253 1.69922 44.5482V47.36H9.73629V47.3536Z" fill="#FCE8CB"/>
<path d="M15.4053 47.7735H9.62843C9.5806 47.7877 9.53018 47.7904 9.48116 47.7813C9.43214 47.7722 9.38587 47.7516 9.34601 47.7211C9.30615 47.6905 9.2738 47.651 9.25151 47.6055C9.22923 47.56 9.21763 47.5098 9.21763 47.4589C9.21763 47.4081 9.22923 47.3579 9.25151 47.3124C9.2738 47.2669 9.30615 47.2273 9.34601 47.1968C9.38587 47.1663 9.43214 47.1456 9.48116 47.1365C9.53018 47.1274 9.5806 47.1301 9.62843 47.1444H15.0844V44.5754C15.0835 43.8152 14.7874 43.0865 14.2609 42.549C13.7345 42.0115 13.0207 41.7091 12.2762 41.7082H10.2318C10.1467 41.7082 10.065 41.6737 10.0049 41.6123C9.94467 41.5508 9.91086 41.4675 9.91086 41.3806V40.5778C9.47554 40.8255 8.98737 40.9605 8.4891 40.971C7.98834 40.9572 7.49918 40.814 7.06735 40.5548V41.3806C7.06735 41.4675 7.03353 41.5508 6.97335 41.6123C6.91316 41.6737 6.83153 41.7082 6.74641 41.7082H4.71166C3.9674 41.71 3.25411 42.0126 2.72783 42.5499C2.20156 43.0872 1.90515 43.8155 1.90345 44.5754V47.1444H7.00958C7.05741 47.1301 7.10783 47.1274 7.15685 47.1365C7.20587 47.1456 7.25214 47.1663 7.292 47.1968C7.33186 47.2273 7.36421 47.2669 7.3865 47.3124C7.40878 47.3579 7.42038 47.4081 7.42038 47.4589C7.42038 47.5098 7.40878 47.56 7.3865 47.6055C7.36421 47.651 7.33186 47.6905 7.292 47.7211C7.25214 47.7516 7.20587 47.7722 7.15685 47.7813C7.10783 47.7904 7.05741 47.7877 7.00958 47.7735H1.59535C1.51023 47.7735 1.4286 47.739 1.36841 47.6775C1.30823 47.6161 1.27441 47.5327 1.27441 47.4458V44.5623C1.27611 43.6355 1.63744 42.7473 2.27928 42.0919C2.92111 41.4366 3.79114 41.0677 4.69882 41.066H6.45115V40.0076C6.45115 39.9207 6.48496 39.8374 6.54515 39.7759C6.60533 39.7145 6.68697 39.6799 6.77208 39.6799H6.80739C6.8703 39.6804 6.93168 39.6998 6.9839 39.7356C7.4186 40.0867 7.94862 40.2926 8.50194 40.3255C9.06555 40.2958 9.60713 40.0924 10.0553 39.7422C10.1024 39.7104 10.1568 39.6918 10.2132 39.6884C10.2695 39.6849 10.3258 39.6967 10.3762 39.7225C10.4249 39.7504 10.4655 39.7908 10.4942 39.8396C10.5229 39.8885 10.5387 39.9441 10.5399 40.0011V41.0529H12.289C13.1973 41.0538 14.0681 41.4223 14.7106 42.0777C15.3532 42.7331 15.7149 43.6219 15.7166 44.5492V47.4327C15.7183 47.476 15.7116 47.5192 15.6969 47.5599C15.6821 47.6005 15.6596 47.6378 15.6307 47.6695C15.6017 47.7011 15.5669 47.7267 15.5282 47.7445C15.4895 47.7624 15.4478 47.7722 15.4053 47.7735Z" fill="#1D2939"/>
<path d="M9.73629 47.3601H15.5045V44.5202C15.5049 44.1086 15.4248 43.7009 15.2685 43.3206C15.1123 42.9402 14.8831 42.5946 14.5941 42.3036C14.3051 42.0125 13.9619 41.7817 13.5842 41.6244C13.2064 41.4671 12.8016 41.3863 12.3929 41.3867H11.8866L9.74911 44.2427L8.64353 43.4036L7.54116 44.2427L5.40371 41.3867H4.81086C3.9856 41.3867 3.19414 41.7169 2.6106 42.3045C2.02705 42.8921 1.69922 43.6892 1.69922 44.5202V47.3601H9.73629Z" fill="#8AC6DD"/>
<path d="M15.4056 47.7705H9.62858C9.58075 47.7846 9.53033 47.7872 9.48131 47.7782C9.43229 47.7692 9.38601 47.7489 9.34615 47.7188C9.30629 47.6886 9.27394 47.6496 9.25166 47.6047C9.22938 47.5598 9.21778 47.5103 9.21778 47.46C9.21778 47.4098 9.22938 47.3603 9.25166 47.3154C9.27394 47.2705 9.30629 47.2315 9.34615 47.2013C9.38601 47.1712 9.43229 47.1509 9.48131 47.1419C9.53033 47.1329 9.58075 47.1355 9.62858 47.1496H15.0846V44.6142C15.0846 43.8637 14.7888 43.144 14.2621 42.6133C13.7355 42.0827 13.0212 41.7846 12.2764 41.7846H11.9554L9.90139 44.5334C9.85027 44.5969 9.77715 44.6386 9.69675 44.65C9.61635 44.6614 9.53465 44.6417 9.46811 44.5948L8.547 43.8963L7.6291 44.5948C7.56487 44.6357 7.48833 44.6522 7.41311 44.6416C7.33789 44.6309 7.26886 44.5937 7.2183 44.5366L5.16425 41.7878H4.71172C3.96719 41.7886 3.25339 42.087 2.72692 42.6175C2.20046 43.148 1.90431 43.8672 1.90346 44.6174V47.1528H7.00968C7.05751 47.1388 7.10794 47.1361 7.15696 47.1451C7.20598 47.1541 7.25225 47.1744 7.29211 47.2046C7.33197 47.2347 7.36432 47.2738 7.38661 47.3187C7.40889 47.3636 7.42049 47.4131 7.42049 47.4633C7.42049 47.5135 7.40889 47.563 7.38661 47.6079C7.36432 47.6528 7.33197 47.6919 7.29211 47.722C7.25225 47.7521 7.20598 47.7725 7.15696 47.7815C7.10794 47.7904 7.05751 47.7878 7.00968 47.7737H1.59536C1.51024 47.7737 1.4286 47.7397 1.36842 47.679C1.30823 47.6184 1.27441 47.5361 1.27441 47.4503V44.6045C1.2812 43.691 1.64654 42.8174 2.29061 42.1744C2.93468 41.5315 3.80511 41.1716 4.71172 41.1733H5.33114C5.39545 41.1753 5.45768 41.1967 5.50976 41.2348C5.56184 41.2729 5.60136 41.3258 5.6232 41.3868L7.51998 43.9222L8.3769 43.2754C8.43126 43.2364 8.49633 43.2154 8.56305 43.2154C8.62978 43.2154 8.69484 43.2364 8.7492 43.2754L9.60933 43.9222L11.535 41.3641C11.5572 41.3084 11.5952 41.2606 11.6443 41.2266C11.6934 41.1927 11.7514 41.1741 11.811 41.1733H12.2892C13.198 41.1742 14.0694 41.5384 14.712 42.1859C15.3546 42.8334 15.716 43.7114 15.7169 44.6272V47.473C15.7106 47.5525 15.6753 47.6269 15.6178 47.6819C15.5604 47.7368 15.4848 47.7684 15.4056 47.7705Z" fill="#1D2939"/>
<path fill-rule="evenodd" clip-rule="evenodd" d="M4.46029 33.7034C4.46095 33.9569 4.38668 34.2048 4.24691 34.4158C4.10714 34.6268 3.90815 34.7914 3.67516 34.8887C3.44217 34.986 3.18567 35.0116 2.93816 34.9623C2.69066 34.913 2.46329 34.7911 2.28487 34.6119C2.10645 34.4326 1.98501 34.2043 1.93595 33.9557C1.88688 33.707 1.9124 33.4494 2.00926 33.2154C2.10613 32.9814 2.26998 32.7815 2.48005 32.6411C2.69012 32.5007 2.93696 32.4261 3.18928 32.4268C3.52637 32.4268 3.84966 32.5613 4.08802 32.8007C4.32638 33.0401 4.46029 33.3648 4.46029 33.7034Z" fill="#FCE8CB"/>
<path d="M3.18283 35.2C2.88892 35.1994 2.60178 35.1113 2.3577 34.9469C2.11362 34.7824 1.92355 34.549 1.8115 34.276C1.69945 34.0031 1.67045 33.7029 1.72817 33.4135C1.78588 33.124 1.92772 32.8582 2.13577 32.6497C2.34382 32.4411 2.60873 32.2992 2.89704 32.2418C3.18535 32.1845 3.48412 32.2142 3.75561 32.3274C4.02709 32.4405 4.2591 32.6319 4.42233 32.8774C4.58555 33.1229 4.67267 33.4115 4.67267 33.7067C4.67185 34.1031 4.51452 34.4829 4.23521 34.7629C3.9559 35.0428 3.57742 35.2 3.18283 35.2ZM3.18283 32.8132C3.0069 32.8132 2.83491 32.8656 2.68863 32.9638C2.54234 33.062 2.42833 33.2015 2.361 33.3648C2.29367 33.5281 2.27606 33.7077 2.31038 33.881C2.3447 34.0543 2.42942 34.2136 2.55383 34.3385C2.67824 34.4635 2.83674 34.5486 3.00929 34.583C3.18185 34.6175 3.36071 34.5998 3.52325 34.5322C3.68579 34.4646 3.82472 34.35 3.92247 34.2031C4.02021 34.0562 4.07238 33.8834 4.07238 33.7067C4.07238 33.5894 4.04937 33.4732 4.00467 33.3648C3.95996 33.2564 3.89444 33.1579 3.81184 33.0749C3.72924 32.9919 3.63117 32.9261 3.52325 32.8812C3.41532 32.8363 3.29965 32.8132 3.18283 32.8132Z" fill="#1D2939"/>
<path fill-rule="evenodd" clip-rule="evenodd" d="M15.0797 33.7068C15.0797 33.9599 15.0112 34.2074 14.8828 34.4179C14.7545 34.6284 14.572 34.7924 14.3586 34.8893C14.1451 34.9862 13.9103 35.0116 13.6837 34.9622C13.4571 34.9128 13.2489 34.7909 13.0855 34.6119C12.9222 34.4328 12.8109 34.2048 12.7659 33.9565C12.7208 33.7082 12.7439 33.4508 12.8323 33.2169C12.9207 32.983 13.0705 32.7831 13.2626 32.6425C13.4547 32.5018 13.6805 32.4268 13.9115 32.4268C14.2214 32.4268 14.5185 32.5616 14.7376 32.8017C14.9566 33.0417 15.0797 33.3673 15.0797 33.7068Z" fill="#FCE8CB"/>
<path d="M13.9115 35.2C13.5965 35.2 13.2885 35.1125 13.0265 34.9484C12.7646 34.7843 12.5604 34.5511 12.4399 34.2782C12.3193 34.0053 12.2877 33.7051 12.3492 33.4154C12.4107 33.1257 12.5624 32.8596 12.7852 32.6508C13.0079 32.4419 13.2918 32.2997 13.6008 32.2421C13.9098 32.1845 14.23 32.214 14.5211 32.3271C14.8122 32.4401 15.061 32.6315 15.236 32.8771C15.411 33.1226 15.5044 33.4114 15.5044 33.7067C15.5044 34.1028 15.3366 34.4826 15.0379 34.7627C14.7392 35.0427 14.334 35.2 13.9115 35.2ZM13.9115 32.8132C13.723 32.8132 13.5388 32.8656 13.382 32.9638C13.2253 33.062 13.1031 33.2015 13.031 33.3648C12.9588 33.5281 12.94 33.7077 12.9768 33.881C13.0135 34.0543 13.1043 34.2136 13.2376 34.3385C13.3709 34.4635 13.5407 34.5486 13.7256 34.583C13.9105 34.6175 14.1021 34.5998 14.2763 34.5322C14.4504 34.4646 14.5993 34.35 14.704 34.2031C14.8087 34.0562 14.8646 33.8834 14.8646 33.7067C14.8637 33.47 14.763 33.2432 14.5845 33.0758C14.4059 32.9084 14.164 32.814 13.9115 32.8132Z" fill="#1D2939"/>
<path d="M14.016 33.1093C14.016 36.1211 11.0822 40.7467 8.49714 40.7467C6.02946 40.7467 2.97502 36.1211 2.97502 33.1093C2.95713 32.3817 3.08669 31.658 3.35608 30.9807C3.62546 30.3034 4.02924 29.6862 4.54363 29.1654C5.05803 28.6446 5.67265 28.2307 6.35134 27.9482C7.03002 27.6656 7.75905 27.52 8.49551 27.52C9.23198 27.52 9.96101 27.6656 10.6397 27.9482C11.3184 28.2307 11.933 28.6446 12.4474 29.1654C12.9618 29.6862 13.3656 30.3034 13.6349 30.9807C13.9043 31.658 14.0339 32.3817 14.016 33.1093Z" fill="#FCE8CB"/>
<path d="M8.4955 40.96C5.83648 40.96 2.76099 36.1715 2.76099 33.0476C2.76099 31.525 3.36516 30.0648 4.44059 28.9881C5.51602 27.9115 6.97461 27.3066 8.4955 27.3066C10.0164 27.3066 11.475 27.9115 12.5504 28.9881C13.6258 30.0648 14.23 31.525 14.23 33.0476C14.23 36.2421 11.209 40.96 8.4955 40.96ZM8.4955 27.9224C7.13605 27.9224 5.83227 28.4631 4.871 29.4255C3.90972 30.3878 3.36968 31.6931 3.36968 33.0541C3.36968 35.8251 6.23053 40.3506 8.4955 40.3506C10.8181 40.3506 13.6213 35.8604 13.6213 33.0541C13.6213 31.6931 13.0813 30.3878 12.12 29.4255C11.1587 28.4631 9.85495 27.9224 8.4955 27.9224Z" fill="#1D2939"/>
<path d="M7.22112 32.9634C7.22047 33.0684 7.18895 33.171 7.1305 33.2581C7.07205 33.3452 6.98928 33.4131 6.89258 33.4531C6.79588 33.4932 6.68955 33.5037 6.58694 33.4833C6.48433 33.4628 6.39002 33.4124 6.31583 33.3383C6.24164 33.2643 6.19089 33.1698 6.16994 33.0669C6.14899 32.964 6.15878 32.8571 6.19807 32.7597C6.23737 32.6624 6.30443 32.5788 6.39082 32.5196C6.47722 32.4603 6.57911 32.4281 6.68371 32.4268C6.75425 32.4259 6.82425 32.4392 6.88963 32.4658C6.95501 32.4924 7.01445 32.5319 7.06448 32.5818C7.11451 32.6318 7.15413 32.6913 7.18103 32.7568C7.20792 32.8223 7.22155 32.8925 7.22112 32.9634Z" fill="#1D2939"/>
<path d="M11.0444 32.9602C11.0443 33.0661 11.0129 33.1696 10.9542 33.2575C10.8954 33.3454 10.8119 33.4137 10.7143 33.4538C10.6167 33.4938 10.5095 33.5038 10.4062 33.4824C10.303 33.4611 10.2084 33.4093 10.1345 33.3338C10.0607 33.2582 10.0109 33.1623 9.99148 33.0582C9.97209 32.9541 9.98398 32.8466 10.0256 32.7493C10.0673 32.652 10.1369 32.5694 10.2254 32.512C10.314 32.4546 10.4176 32.4249 10.523 32.4268C10.6624 32.4285 10.7955 32.4856 10.8932 32.5855C10.9909 32.6854 11.0452 32.8201 11.0444 32.9602Z" fill="#1D2939"/>
<path d="M6.37172 34.5599C6.37172 34.9145 5.99248 35.1999 5.52067 35.1999C5.04886 35.1999 4.67261 34.9145 4.67261 34.5599C4.67261 34.2054 5.05185 33.9199 5.52067 33.9199C5.9895 33.9199 6.37172 34.2054 6.37172 34.5599Z" fill="#F5978A"/>
<path d="M12.5309 34.5599C12.5309 34.9145 12.1016 35.1999 11.5751 35.1999C11.0486 35.1999 10.6194 34.9145 10.6194 34.5599C10.6194 34.2054 11.0486 33.9199 11.5751 33.9199C12.1016 33.9199 12.5309 34.2054 12.5309 34.5599Z" fill="#F5978A"/>
<path d="M8.60076 26.4534C5.49335 26.4534 2.97339 28.8405 2.97339 31.7808C2.9743 32.0661 3.02985 32.3487 3.13711 32.6136C3.18847 32.7503 3.99421 32.3148 4.06163 32.2671C4.40329 32.0235 4.68705 31.7089 4.89305 31.3453C4.97746 31.2007 5.05044 31.0498 5.11134 30.8939C5.29753 30.4076 5.80152 29.063 6.31193 29.1679C7.82311 29.4646 9.37841 29.4646 10.8896 29.1679C11.4032 29.063 11.9072 30.4076 12.0934 30.8939C12.1532 31.0497 12.2251 31.2006 12.3085 31.3453C12.4709 31.6641 12.7024 31.9434 12.9866 32.1632C13.2707 32.383 13.6004 32.5379 13.9521 32.6168C13.9521 32.585 13.997 32.5723 14.0291 32.5596C14.2634 32.4769 14.2281 31.9779 14.2281 31.7935C14.2281 28.831 11.7082 26.4534 8.60076 26.4534Z" fill="#475467"/>
<path d="M3.07224 33.0627C3.03533 33.0679 2.99787 33.0679 2.96096 33.0627C2.90856 33.047 2.86055 33.0192 2.82076 32.9815C2.78098 32.9438 2.75053 32.8972 2.73186 32.8456C2.61083 32.5308 2.54869 32.1962 2.54858 31.8587C2.54858 28.6581 5.26503 26.0266 8.60004 26.0266C11.9351 26.0266 14.6548 28.6581 14.6548 31.8555V31.9147C14.6548 32.214 14.6548 32.76 14.2784 32.9311L14.2555 32.9541C14.2213 32.9815 14.1819 33.0018 14.1397 33.0137C14.0976 33.0255 14.0535 33.0288 14.01 33.0232C13.6054 32.936 13.2251 32.7598 12.8963 32.5073C12.5675 32.2548 12.2985 31.9322 12.1085 31.5627C12.0146 31.3982 11.9336 31.2267 11.8663 31.0495V31.0199C11.3394 29.6186 11.0743 29.4739 11.0056 29.4608C9.42499 29.7765 7.79801 29.7765 6.21742 29.4608C6.15524 29.4608 5.89014 29.6186 5.36322 31.0166V31.0495C5.29654 31.2269 5.21555 31.3986 5.12103 31.5627C4.88639 31.9789 4.56482 32.3392 4.17845 32.6186C3.84365 32.8408 3.46722 32.9919 3.07224 33.0627ZM14.1017 32.6646L14.2129 32.9574H14.2359L14.1017 32.6646ZM8.60004 26.6648C5.61195 26.6648 3.18024 28.9937 3.18024 31.8587C3.1781 32.0333 3.20125 32.2073 3.24897 32.3752C3.43703 32.2953 3.61962 32.203 3.79553 32.0989C4.10319 31.8725 4.35972 31.5833 4.54828 31.2502C4.62534 31.1151 4.69208 30.9744 4.74792 30.8292V30.7963C5.1603 29.6976 5.63813 28.7009 6.31888 28.8456C7.81747 29.1439 9.35971 29.1439 10.8583 28.8456C11.539 28.7009 12.0169 29.6976 12.4293 30.7963V30.8292C12.4844 30.9747 12.5512 31.1155 12.6289 31.2502C12.9 31.7845 13.3707 32.1891 13.938 32.3752C13.9747 32.2313 13.9869 32.0823 13.974 31.9344V31.8653C14.0231 28.9871 11.5914 26.6648 8.60004 26.6648Z" fill="#1D2939"/>
<path d="M6.44534 40.6263L5.3313 41.4695L7.47946 44.3329L8.5935 43.4896L6.44534 40.6263Z" fill="#475467"/>
<path d="M7.51205 44.5867H7.47073C7.39073 44.5701 7.32015 44.5233 7.27364 44.4559L5.15337 41.6302C5.10822 41.5644 5.08938 41.4839 5.10056 41.4047C5.11175 41.3256 5.15215 41.2535 5.21377 41.2029L6.32 40.38C6.38529 40.3329 6.46593 40.3124 6.54569 40.3226C6.62604 40.3344 6.69884 40.3767 6.74914 40.4406L8.86305 43.2631C8.90913 43.3293 8.92852 43.4105 8.91732 43.4904C8.90611 43.5702 8.86514 43.6429 8.80266 43.6937L7.70278 44.5261C7.64736 44.5664 7.58047 44.5876 7.51205 44.5867ZM5.82092 41.5154L7.57245 43.85L8.18279 43.3875L6.43126 41.0562L5.82092 41.5154Z" fill="#1D2939"/>
<path d="M8.58518 43.4854L9.69922 44.3286L11.8474 41.4652L10.7333 40.622L8.58518 43.4854Z" fill="#475467"/>
<path d="M9.68673 44.5867C9.62031 44.5876 9.55547 44.5663 9.50247 44.5261L8.40329 43.6937C8.37097 43.6694 8.3439 43.6388 8.32369 43.6037C8.30349 43.5687 8.29058 43.5298 8.28575 43.4896C8.2756 43.4096 8.29603 43.3287 8.34293 43.2631L10.4619 40.4406C10.5121 40.3767 10.5849 40.3344 10.6652 40.3226C10.7449 40.3124 10.8255 40.3329 10.8907 40.38L11.9899 41.2124C12.0515 41.2631 12.0919 41.3352 12.1031 41.4143C12.1142 41.4935 12.0954 41.5739 12.0503 41.6398L9.93135 44.4559C9.90306 44.4949 9.86636 44.5269 9.82399 44.5495C9.78162 44.5722 9.73469 44.5849 9.68673 44.5867ZM9.01642 43.3875L9.62637 43.85L11.3895 41.5154L10.7541 41.0562L9.01642 43.3875Z" fill="#1D2939"/>
<path d="M4.15433 47.7867C4.06983 47.7867 3.9888 47.7528 3.92905 47.6925C3.86931 47.6321 3.83574 47.5502 3.83574 47.4649V45.212C3.82189 45.164 3.81929 45.1135 3.82814 45.0643C3.83698 45.0152 3.85704 44.9688 3.88672 44.9288C3.91639 44.8888 3.95487 44.8564 3.99911 44.834C4.04334 44.8117 4.09212 44.8 4.14158 44.8C4.19104 44.8 4.23982 44.8117 4.28406 44.834C4.32829 44.8564 4.36677 44.8888 4.39645 44.9288C4.42612 44.9688 4.44618 45.0152 4.45503 45.0643C4.46387 45.1135 4.46127 45.164 4.44742 45.212V47.4649C4.44768 47.546 4.41763 47.6241 4.3633 47.6838C4.30896 47.7435 4.23433 47.7802 4.15433 47.7867Z" fill="#1D2939"/>
<path d="M8.53094 37.7578C8.13855 37.7752 7.74943 37.6878 7.41602 37.5075C7.0826 37.3271 6.8209 37.0625 6.66617 36.7491C6.63226 36.7152 6.60784 36.675 6.59481 36.6315C6.58178 36.588 6.58049 36.5426 6.59106 36.4986C6.60162 36.4546 6.62375 36.4134 6.65571 36.3781C6.68767 36.3428 6.72861 36.3143 6.77532 36.295C6.82203 36.2757 6.87326 36.266 6.92501 36.2666C6.97676 36.2673 7.02763 36.2783 7.07365 36.2989C7.11968 36.3194 7.15961 36.3489 7.19034 36.385C7.22107 36.4212 7.24176 36.463 7.2508 36.5072C7.35387 36.724 7.533 36.9071 7.76278 37.0306C7.99256 37.1541 8.26132 37.2116 8.53094 37.1951C8.79481 37.2044 9.056 37.1461 9.28188 37.0274C9.50776 36.9086 9.68831 36.7348 9.80099 36.5276C9.84452 36.4766 9.90603 36.4393 9.97619 36.4214C10.0463 36.4035 10.1213 36.406 10.1897 36.4284C10.2582 36.4508 10.3163 36.492 10.3553 36.5457C10.3942 36.5993 10.412 36.6626 10.4058 36.7258C10.2469 37.04 9.98371 37.306 9.64976 37.4899C9.31581 37.6737 8.92628 37.7669 8.53094 37.7578Z" fill="#1D2939"/>
<path d="M47.5753 44.5482V47.36H33.77V44.5482C33.77 43.7253 34.0985 42.9361 34.6831 42.3543C35.2677 41.7724 36.0607 41.4455 36.8874 41.4455H38.9454V40.1067H38.9807C39.4673 40.4863 40.0587 40.7092 40.6759 40.7457C41.3045 40.7127 41.9082 40.4897 42.4064 40.1067V41.4391H44.4675C45.2938 41.4417 46.0852 41.7705 46.6679 42.3535C47.2507 42.9365 47.577 43.7258 47.5753 44.5482Z" fill="#FCE8CB"/>
<path d="M47.6789 47.7866H33.8786C33.7934 47.7866 33.7118 47.752 33.6516 47.6905C33.5914 47.6289 33.5576 47.5454 33.5576 47.4584V44.5702C33.5593 43.6414 33.9211 42.7512 34.5636 42.0947C35.2061 41.4382 36.077 41.0691 36.9852 41.0682H38.7343V40.0081C38.7343 39.9211 38.7682 39.8376 38.8283 39.7761C38.8885 39.7145 38.9702 39.6799 39.0553 39.6799H39.0906C39.1546 39.6798 39.2172 39.6992 39.2703 39.7357C39.7038 40.0873 40.2328 40.2936 40.7851 40.3265C41.3499 40.2974 41.8927 40.0937 42.3417 39.7423C42.3888 39.7136 42.4423 39.6976 42.4972 39.6961C42.552 39.6945 42.6063 39.7073 42.6549 39.7333C42.7035 39.7593 42.7448 39.7976 42.7748 39.8446C42.8048 39.8916 42.8225 39.9456 42.8263 40.0016V41.0551H44.5754C45.4831 41.0568 46.3531 41.4264 46.995 42.0827C47.6368 42.7391 47.9981 43.6288 47.9998 44.5571V47.4453C48.0016 47.4895 47.9945 47.5336 47.9792 47.5749C47.9638 47.6162 47.9405 47.654 47.9105 47.6859C47.8805 47.7178 47.8446 47.7431 47.8048 47.7604C47.765 47.7777 47.7221 47.7866 47.6789 47.7866ZM34.177 47.1564H47.3708V44.5833C47.3691 43.8222 47.0727 43.0928 46.5464 42.5546C46.0201 42.0164 45.3068 41.7133 44.5626 41.7115H42.5022C42.417 41.7115 42.3354 41.6769 42.2752 41.6154C42.215 41.5538 42.1812 41.4704 42.1812 41.3833V40.5792C41.7461 40.8277 41.2578 40.963 40.7595 40.9731C40.2598 40.9589 39.7718 40.8155 39.3409 40.5562V41.3833C39.3409 41.4704 39.3071 41.5538 39.2469 41.6154C39.1867 41.6769 39.1051 41.7115 39.02 41.7115H36.9852C36.2407 41.7124 35.5269 42.0152 35.0005 42.5536C34.474 43.092 34.1779 43.8219 34.177 44.5833V47.1564Z" fill="#1D2939"/>
<path d="M47.5753 44.5202V47.3601H33.77V44.5202C33.7696 44.1086 33.8499 43.7009 34.0065 43.3206C34.163 42.9402 34.3926 42.5946 34.6822 42.3036C34.9717 42.0125 35.3155 41.7817 35.694 41.6244C36.0724 41.4671 36.4779 41.3863 36.8874 41.3867H37.5039L39.6485 44.2427L40.7529 43.4036L41.8574 44.2427L43.9988 41.3867H44.4932C45.3139 41.3961 46.0978 41.7303 46.6748 42.317C47.2518 42.9036 47.5754 43.6953 47.5753 44.5202Z" fill="#FFBA93"/>
<path d="M47.6792 47.7867H33.8786C33.7934 47.7867 33.7118 47.7525 33.6516 47.6917C33.5914 47.6309 33.5576 47.5485 33.5576 47.4625V44.6097C33.5652 43.6962 33.9296 42.8227 34.5715 42.1792C35.2134 41.5356 36.0809 41.1742 36.9853 41.1733H37.6015C37.6658 41.1753 37.728 41.1968 37.7801 41.2349C37.8322 41.2731 37.8717 41.3262 37.8936 41.3873L39.7903 43.9289L40.6505 43.2805C40.7048 43.2414 40.7699 43.2204 40.8366 43.2204C40.9033 43.2204 40.9684 43.2414 41.0228 43.2805L41.8797 43.9289L43.8054 41.3646C43.8275 41.3088 43.8656 41.2608 43.9147 41.2268C43.9638 41.1927 44.0218 41.1741 44.0814 41.1733H44.5756C45.4839 41.1751 46.3544 41.5405 46.9963 42.1895C47.6383 42.8385 47.9992 43.7182 48.0001 44.6356V47.4884C47.9936 47.5698 47.957 47.6458 47.8975 47.7011C47.838 47.7564 47.76 47.7869 47.6792 47.7867ZM34.177 47.1642H47.371V44.6226C47.3702 43.8706 47.0741 43.1496 46.5476 42.6178C46.0211 42.086 45.3073 41.7869 44.5628 41.786H44.2418L42.1846 44.5416C42.1335 44.6053 42.0604 44.6471 41.98 44.6585C41.8996 44.67 41.8179 44.6502 41.7513 44.6032L40.8334 43.903L39.9123 44.6032C39.8469 44.6477 39.7676 44.6664 39.6895 44.6557C39.6113 44.6449 39.5398 44.6054 39.4887 44.5448L37.4314 41.7893H36.9853C36.2405 41.7893 35.5262 42.0881 34.9996 42.6201C34.4729 43.1521 34.177 43.8736 34.177 44.6259V47.1642Z" fill="#1D2939"/>
<path fill-rule="evenodd" clip-rule="evenodd" d="M36.5309 33.7068C36.5309 33.9599 36.4624 34.2074 36.334 34.4179C36.2056 34.6284 36.0232 34.7924 35.8098 34.8893C35.5963 34.9862 35.3614 35.0116 35.1348 34.9622C34.9082 34.9128 34.7001 34.7909 34.5367 34.6119C34.3734 34.4328 34.2621 34.2048 34.217 33.9565C34.172 33.7082 34.1951 33.4508 34.2835 33.2169C34.3719 32.983 34.5216 32.7831 34.7137 32.6425C34.9058 32.5018 35.1317 32.4268 35.3627 32.4268C35.6725 32.4268 35.9697 32.5616 36.1887 32.8017C36.4078 33.0417 36.5309 33.3673 36.5309 33.7068Z" fill="#FCE8CB"/>
<path d="M35.3629 35.2C35.0479 35.2 34.7399 35.1125 34.478 34.9484C34.216 34.7843 34.0118 34.5511 33.8913 34.2782C33.7707 34.0053 33.7392 33.7051 33.8006 33.4154C33.8621 33.1257 34.0138 32.8596 34.2366 32.6508C34.4593 32.4419 34.7432 32.2997 35.0522 32.2421C35.3612 32.1845 35.6815 32.214 35.9725 32.3271C36.2636 32.4401 36.5124 32.6315 36.6874 32.8771C36.8624 33.1226 36.9559 33.4114 36.9559 33.7067C36.9559 34.1028 36.788 34.4826 36.4893 34.7627C36.1906 35.0427 35.7854 35.2 35.3629 35.2ZM35.3629 32.8132C35.1744 32.8132 34.9902 32.8656 34.8334 32.9638C34.6767 33.062 34.5545 33.2015 34.4824 33.3648C34.4103 33.5281 34.3914 33.7077 34.4282 33.881C34.4649 34.0543 34.5557 34.2136 34.689 34.3385C34.8223 34.4635 34.9921 34.5486 35.177 34.583C35.3619 34.6175 35.5535 34.5998 35.7277 34.5322C35.9018 34.4646 36.0507 34.35 36.1554 34.2031C36.2601 34.0562 36.316 33.8834 36.316 33.7067C36.3151 33.47 36.2145 33.2432 36.0359 33.0758C35.8574 32.9084 35.6154 32.814 35.3629 32.8132Z" fill="#1D2939"/>
<path fill-rule="evenodd" clip-rule="evenodd" d="M47.3629 33.7068C47.3629 33.9599 47.2881 34.2074 47.1481 34.4179C47.0081 34.6284 46.8091 34.7924 46.5762 34.8893C46.3434 34.9862 46.0871 35.0116 45.8399 34.9622C45.5927 34.9128 45.3657 34.7909 45.1875 34.6119C45.0092 34.4328 44.8879 34.2048 44.8387 33.9565C44.7895 33.7082 44.8148 33.4508 44.9112 33.2169C45.0077 32.983 45.171 32.7831 45.3806 32.6425C45.5901 32.5018 45.8365 32.4268 46.0885 32.4268C46.4265 32.4268 46.7507 32.5616 46.9896 32.8017C47.2286 33.0417 47.3629 33.3673 47.3629 33.7068Z" fill="#FCE8CB"/>
<path d="M46.0885 35.2C45.7945 35.2 45.507 35.1125 45.2625 34.9484C45.0181 34.7843 44.8275 34.5511 44.715 34.2782C44.6024 34.0053 44.573 33.7051 44.6304 33.4154C44.6877 33.1257 44.8293 32.8596 45.0373 32.6508C45.2452 32.4419 45.5101 32.2997 45.7985 32.2421C46.0869 32.1845 46.3858 32.214 46.6575 32.3271C46.9291 32.4401 47.1613 32.6315 47.3247 32.8771C47.4881 33.1226 47.5753 33.4114 47.5753 33.7067C47.5744 34.1025 47.4175 34.4819 47.1389 34.7617C46.8603 35.0416 46.4826 35.1992 46.0885 35.2ZM46.0885 32.8132C45.9125 32.8126 45.7402 32.8645 45.5935 32.9623C45.4468 33.0601 45.3323 33.1994 45.2645 33.3626C45.1967 33.5258 45.1786 33.7056 45.2126 33.8791C45.2466 34.0526 45.331 34.2121 45.4553 34.3374C45.5796 34.4627 45.7381 34.5481 45.9107 34.5828C46.0834 34.6175 46.2624 34.6 46.4251 34.5325C46.5878 34.465 46.727 34.3504 46.8248 34.2034C46.9227 34.0564 46.975 33.8836 46.975 33.7067C46.9742 33.4705 46.8806 33.2442 46.7146 33.0769C46.5486 32.9096 46.3237 32.8149 46.0885 32.8132Z" fill="#1D2939"/>
<path d="M46.2992 33.1093C46.2992 36.1211 43.3654 40.7467 40.7771 40.7467C38.3127 40.7467 35.2582 36.1211 35.2582 33.1093C35.2403 32.3817 35.3699 31.658 35.6393 30.9807C35.9087 30.3034 36.3124 29.6862 36.8268 29.1654C37.3412 28.6446 37.9559 28.2307 38.6345 27.9482C39.3132 27.6656 40.0422 27.52 40.7787 27.52C41.5152 27.52 42.2442 27.6656 42.9229 27.9482C43.6016 28.2307 44.2162 28.6446 44.7306 29.1654C45.245 29.6862 45.6488 30.3034 45.9181 30.9807C46.1875 31.658 46.3171 32.3817 46.2992 33.1093Z" fill="#FCE8CB"/>
<path d="M40.7787 40.96C38.1197 40.96 35.0442 36.1715 35.0442 33.0476C35.0442 32.2937 35.1925 31.5472 35.4807 30.8507C35.7689 30.1541 36.1913 29.5212 36.7238 28.9881C37.2563 28.455 37.8885 28.0322 38.5842 27.7436C39.2799 27.4551 40.0256 27.3066 40.7787 27.3066C41.5318 27.3066 42.2775 27.4551 42.9732 27.7436C43.669 28.0322 44.3011 28.455 44.8336 28.9881C45.3661 29.5212 45.7885 30.1541 46.0767 30.8507C46.3649 31.5472 46.5132 32.2937 46.5132 33.0476C46.5132 36.2421 43.4922 40.96 40.7787 40.96ZM40.7787 27.9224C39.4192 27.9224 38.1155 28.4631 37.1542 29.4255C36.1929 30.3878 35.6529 31.6931 35.6529 33.0541C35.6529 35.8251 38.5105 40.3506 40.7787 40.3506C43.1013 40.3506 45.9045 35.8604 45.9045 33.0541C45.9045 31.6931 45.3645 30.3878 44.4032 29.4255C43.4419 28.4631 42.1382 27.9224 40.7787 27.9224Z" fill="#1D2939"/>
<path d="M39.2919 32.9602C39.2919 33.0654 39.2609 33.1682 39.2029 33.2558C39.1448 33.3433 39.0622 33.4117 38.9656 33.4522C38.8689 33.4928 38.7625 33.5037 38.6597 33.4836C38.5569 33.4636 38.4623 33.4134 38.3878 33.3395C38.3132 33.2655 38.2622 33.1711 38.241 33.0681C38.2198 32.9651 38.2294 32.858 38.2686 32.7605C38.3078 32.6629 38.3749 32.5792 38.4613 32.5198C38.5478 32.4605 38.6498 32.4281 38.7546 32.4268C38.8249 32.4256 38.8949 32.4384 38.9602 32.4647C39.0256 32.491 39.085 32.5301 39.1351 32.5798C39.1852 32.6295 39.2248 32.6887 39.2518 32.7541C39.2787 32.8194 39.2924 32.8895 39.2919 32.9602Z" fill="#1D2939"/>
<path d="M43.1152 32.9601C43.1152 33.0659 43.0838 33.1693 43.0252 33.2571C42.9666 33.3449 42.8833 33.4133 42.7859 33.4534C42.6885 33.4936 42.5814 33.5038 42.4782 33.4827C42.3751 33.4616 42.2805 33.4102 42.2065 33.3349C42.1325 33.2597 42.0824 33.1641 42.0627 33.0602C42.0429 32.9563 42.0543 32.8489 42.0955 32.7515C42.1367 32.6542 42.2057 32.5714 42.2939 32.5135C42.382 32.4557 42.4853 32.4255 42.5906 32.4268C42.6599 32.4272 42.7284 32.4413 42.7923 32.4684C42.8562 32.4954 42.9141 32.5348 42.9628 32.5843C43.0116 32.6339 43.0501 32.6925 43.0762 32.757C43.1023 32.8215 43.1156 32.8905 43.1152 32.9601Z" fill="#1D2939"/>
<path d="M38.6549 34.5599C38.6549 34.9145 38.2257 35.1999 37.6992 35.1999C37.1727 35.1999 36.7434 34.9145 36.7434 34.5599C36.7434 34.2054 37.1727 33.9199 37.6992 33.9199C38.2257 33.9199 38.6549 34.2054 38.6549 34.5599Z" fill="#F5978A"/>
<path d="M44.6017 34.5599C44.6017 34.9145 44.2225 35.1999 43.7536 35.1999C43.2848 35.1999 42.9026 34.9145 42.9026 34.5599C42.9026 34.2054 43.2818 33.9199 43.7536 33.9199C44.2254 33.9199 44.6017 34.2054 44.6017 34.5599Z" fill="#F5978A"/>
<path d="M40.8842 26.4534C37.7766 26.4534 35.2566 28.8405 35.2566 31.7808C35.2575 32.0661 35.3131 32.3487 35.4203 32.6136C35.4685 32.7503 36.2742 32.3148 36.3417 32.2671C36.6845 32.0239 36.9694 31.7092 37.1763 31.3453C37.2595 31.2 37.3324 31.0492 37.3946 30.8939C37.5776 30.4076 38.0816 29.063 38.5953 29.1679C40.1065 29.4646 41.6618 29.4646 43.1731 29.1679C43.6835 29.063 44.1875 30.4076 44.3737 30.8939C44.4346 31.0498 44.5076 31.2007 44.592 31.3453C44.7543 31.6636 44.9854 31.9426 45.2689 32.1623C45.5525 32.3821 45.8814 32.5373 46.2325 32.6168C46.2325 32.585 46.2774 32.5723 46.3095 32.5596C46.5438 32.4769 46.5117 31.9779 46.5117 31.7935C46.5117 28.831 43.9917 26.4534 40.8842 26.4534Z" fill="#475467"/>
<path d="M35.3464 33.0625C35.3102 33.068 35.2733 33.068 35.2371 33.0625C35.1853 33.0473 35.1379 33.0196 35.0988 32.9819C35.0596 32.9441 35.0298 32.8973 35.0119 32.8454C34.8911 32.5312 34.83 32.1962 34.8318 31.8586C34.8318 28.6581 37.4981 26.0266 40.7787 26.0266C44.0593 26.0266 46.7256 28.6581 46.7256 31.8553V31.9145C46.7256 32.2138 46.7256 32.7599 46.3589 32.9309L46.3332 32.9539C46.2996 32.9814 46.2609 33.0016 46.2194 33.0135C46.178 33.0254 46.1347 33.0286 46.092 33.023C45.6944 32.9358 45.3206 32.7596 44.9975 32.5071C44.6744 32.2546 44.41 31.932 44.2233 31.5626C44.1305 31.3984 44.0508 31.2268 43.9853 31.0494V31.0165C43.4675 29.6186 43.207 29.4738 43.1394 29.4607C42.367 29.6228 41.5801 29.7022 40.7916 29.6975C39.9999 29.7016 39.2098 29.6223 38.4341 29.4607C38.3762 29.4607 38.1124 29.6186 37.5946 31.0165V31.0494C37.5266 31.2263 37.446 31.3978 37.3534 31.5626C37.1243 31.9789 36.8093 32.3392 36.4303 32.6184C36.1023 32.8402 35.7335 32.9913 35.3464 33.0625ZM46.182 32.6645L46.2946 32.9572H46.3139L46.182 32.6645ZM40.7787 26.6647C37.839 26.6647 35.4494 28.9936 35.4494 31.8586C35.4489 32.0331 35.4716 32.2068 35.5169 32.375C35.702 32.2959 35.8815 32.2035 36.054 32.0987C36.3581 31.8734 36.6115 31.584 36.797 31.2501C36.8714 31.1143 36.9369 30.9737 36.9932 30.829V30.7961C37.4016 29.6975 37.8712 28.7008 38.537 28.8456C40.0097 29.1438 41.5252 29.1438 42.9979 28.8456C43.6637 28.7008 44.1365 29.6975 44.5417 30.7961V30.829C44.5966 30.9743 44.6622 31.115 44.7379 31.2501C45.0052 31.7837 45.4675 32.188 46.0244 32.375C46.059 32.2309 46.0709 32.0822 46.0598 31.9343V31.8652C46.1081 28.987 43.7152 26.6647 40.7787 26.6647Z" fill="#1D2939"/>
<path d="M38.6651 40.6258L37.551 41.469L39.6992 44.3324L40.8132 43.4891L38.6651 40.6258Z" fill="#475467"/>
<path d="M39.7195 44.5867C39.6691 44.5859 39.6197 44.5736 39.5754 44.5509C39.5311 44.5282 39.4931 44.4958 39.4647 44.4563L37.2285 41.6371C37.1805 41.5718 37.16 41.4917 37.1712 41.4128C37.1824 41.3338 37.2243 41.2617 37.2888 41.2107L38.4488 40.3802C38.5186 40.3325 38.605 40.312 38.6902 40.323C38.7319 40.3282 38.7721 40.3413 38.8084 40.3616C38.8447 40.3818 38.8763 40.4087 38.9015 40.4407L41.1377 43.2567C41.1884 43.3216 41.2112 43.4024 41.2014 43.4826C41.1881 43.5635 41.1425 43.6365 41.074 43.6863L39.914 44.5167C39.8595 44.5605 39.7909 44.5852 39.7195 44.5867ZM37.9325 41.5226L39.7799 43.8517L40.4236 43.3903L38.5762 41.0644L37.9325 41.5226Z" fill="#1D2939"/>
<path d="M40.8027 43.4849L41.9167 44.3281L44.0649 41.4647L42.9509 40.6215L40.8027 43.4849Z" fill="#475467"/>
<path d="M41.9696 44.5867C41.9034 44.5863 41.839 44.5651 41.7854 44.5261L40.6892 43.6929C40.6243 43.643 40.5811 43.5698 40.5685 43.4886C40.5593 43.4081 40.5808 43.3271 40.6289 43.262L42.7481 40.4369C42.7985 40.375 42.8703 40.3345 42.9492 40.3232C43.028 40.312 43.1082 40.3309 43.1738 40.3763L44.2731 41.2094C44.3347 41.2601 44.3751 41.3323 44.3863 41.4115C44.3974 41.4907 44.3786 41.5712 44.3335 41.6372L42.2143 44.4559C42.186 44.4948 42.1493 44.5268 42.1069 44.5495C42.0646 44.5722 42.0176 44.5849 41.9696 44.5867ZM41.2993 43.3865L41.9093 43.8493L43.6599 41.5127L43.0372 41.053L41.2993 43.3865Z" fill="#1D2939"/>
<path d="M45.1455 47.7867C45.061 47.7867 44.98 47.7528 44.9203 47.6925C44.8605 47.6321 44.827 47.5502 44.827 47.4649V45.212C44.8131 45.164 44.8105 45.1135 44.8193 45.0643C44.8282 45.0152 44.8482 44.9688 44.8779 44.9288C44.9076 44.8888 44.9461 44.8564 44.9903 44.834C45.0346 44.8117 45.0833 44.8 45.1328 44.8C45.1823 44.8 45.231 44.8117 45.2753 44.834C45.3195 44.8564 45.358 44.8888 45.3877 44.9288C45.4173 44.9688 45.4374 45.0152 45.4462 45.0643C45.4551 45.1135 45.4525 45.164 45.4386 45.212V47.4649C45.4389 47.546 45.4088 47.6241 45.3545 47.6838C45.3002 47.7435 45.2255 47.7802 45.1455 47.7867Z" fill="#1D2939"/>
<path d="M40.6805 37.7577C40.3047 37.7757 39.9321 37.683 39.6128 37.4921C39.2935 37.3012 39.0427 37.0211 38.8941 36.6896C38.8613 36.6176 38.8584 36.5363 38.8859 36.4623C38.9134 36.3883 38.9693 36.3272 39.0422 36.2913C39.1169 36.2608 39.2008 36.2585 39.2772 36.2848C39.3536 36.3111 39.4168 36.3642 39.4542 36.4333C39.5533 36.6626 39.725 36.8563 39.945 36.987C40.1651 37.1177 40.4223 37.1789 40.6805 37.1619C40.9333 37.1718 41.1836 37.11 41.3999 36.9842C41.6163 36.8585 41.7893 36.6744 41.8973 36.4549C41.939 36.4009 41.9979 36.3615 42.0651 36.3425C42.1323 36.3235 42.2041 36.3261 42.2697 36.3499C42.3352 36.3736 42.3909 36.4172 42.4282 36.4741C42.4656 36.5309 42.4826 36.5979 42.4766 36.6649C42.3255 36.9984 42.0736 37.2808 41.7534 37.4756C41.4333 37.6705 41.0595 37.7687 40.6805 37.7577Z" fill="#1D2939"/>
<path fill-rule="evenodd" clip-rule="evenodd" d="M46.7257 27.3052C46.7257 27.3052 44.1213 30.0801 40.9056 30.0801C37.6899 30.0801 36.531 28.8378 36.531 27.3052C36.531 25.7725 37.6899 24.5334 40.9056 24.5334C44.1213 24.5334 46.7257 27.3052 46.7257 27.3052Z" fill="#475467"/>
<path d="M40.8878 30.2934C36.7275 30.2934 36.1062 28.3509 36.1062 27.1984C36.1062 26.0459 36.7275 24.1067 40.8878 24.1067C44.2674 24.1067 46.951 26.8682 47.0681 26.9847C47.1211 27.044 47.1504 27.1206 47.1504 27.2C47.1504 27.2794 47.1211 27.356 47.0681 27.4153C46.951 27.5319 44.2674 30.2934 40.8878 30.2934ZM40.8878 24.7283C38.9914 24.7283 36.7307 25.1588 36.7307 27.1984C36.7307 29.238 38.9914 29.6718 40.8878 29.6718C43.4673 29.6718 45.6889 27.8362 46.385 27.1984C45.6889 26.5639 43.4673 24.7283 40.8878 24.7283Z" fill="#1D2939"/>
<path d="M30.4905 47.7867C30.406 47.7867 30.325 47.7528 30.2652 47.6925C30.2055 47.6321 30.1719 47.5502 30.1719 47.4649V45.212C30.1581 45.164 30.1555 45.1135 30.1643 45.0643C30.1732 45.0152 30.1932 44.9688 30.2229 44.9288C30.2526 44.8888 30.2911 44.8564 30.3353 44.834C30.3795 44.8117 30.4283 44.8 30.4778 44.8C30.5272 44.8 30.576 44.8117 30.6202 44.834C30.6645 44.8564 30.703 44.8888 30.7326 44.9288C30.7623 44.9688 30.7824 45.0152 30.7912 45.0643C30.8001 45.1135 30.7975 45.164 30.7836 45.212V47.4649C30.7839 47.546 30.7538 47.6241 30.6995 47.6838C30.6451 47.7435 30.5705 47.7802 30.4905 47.7867Z" fill="#1D2939"/>
<path d="M30.3716 32H18.6902V45.44H30.3716V32Z" fill="#475467"/>
<path d="M30.4752 45.8666H18.799C18.7138 45.8666 18.6321 45.8326 18.5719 45.772C18.5116 45.7114 18.4778 45.6292 18.4778 45.5435V32.1098C18.4778 32.0241 18.5116 31.9419 18.5719 31.8813C18.6321 31.8207 18.7138 31.7866 18.799 31.7866H30.4752C30.5603 31.7866 30.642 31.8207 30.7023 31.8813C30.7625 31.9419 30.7964 32.0241 30.7964 32.1098V45.5564C30.793 45.6398 30.7577 45.7188 30.6979 45.7766C30.638 45.8344 30.5582 45.8667 30.4752 45.8666ZM19.1106 45.2462H30.1764V32.4232H19.1106V45.2462Z" fill="#1D2939"/>
<path d="M31.6461 47.3507V45.9703C31.6461 45.5702 31.5643 45.1741 31.4054 44.8045C31.2465 44.4349 31.0135 44.0991 30.7199 43.8163C30.4262 43.5334 30.0776 43.309 29.6939 43.1559C29.3102 43.0028 28.899 42.924 28.4837 42.924H26.3927V41.6158C25.8856 41.9866 25.2733 42.2 24.6373 42.2275C24.0111 42.1919 23.4112 41.973 22.9176 41.6001H22.8818V42.9334H20.7909C19.9521 42.9334 19.1478 43.2544 18.5547 43.8257C17.9616 44.397 17.6284 45.1718 17.6284 45.9797V47.3601L31.6461 47.3507Z" fill="#FCE8CB"/>
<path d="M31.5375 47.7867H17.737C17.6518 47.7867 17.5702 47.7522 17.51 47.6909C17.4498 47.6295 17.416 47.5463 17.416 47.4596V46.0205C17.4236 45.0995 17.7876 44.2187 18.4288 43.5695C19.07 42.9204 19.9367 42.5553 20.8405 42.5536H22.5928V41.5004C22.5928 41.4137 22.6267 41.3305 22.6868 41.2691C22.747 41.2078 22.8287 41.1733 22.9138 41.1733H22.9491C23.0126 41.1729 23.0746 41.1935 23.1256 41.2322C23.5611 41.5812 24.0907 41.7865 24.6437 41.8209C25.2075 41.7926 25.7495 41.5894 26.197 41.2388C26.2441 41.2101 26.2977 41.1943 26.3525 41.1927C26.4073 41.1911 26.4617 41.2039 26.5103 41.2298C26.5589 41.2557 26.6001 41.2939 26.6302 41.3407C26.6602 41.3875 26.6779 41.4414 26.6817 41.4971V42.5536H28.434C29.3423 42.5553 30.2128 42.924 30.8547 43.5788C31.4967 44.2336 31.8576 45.1211 31.8585 46.0467V47.4858C31.852 47.5679 31.8154 47.6445 31.7559 47.7003C31.6964 47.7561 31.6184 47.7869 31.5375 47.7867ZM18.0354 47.1587H31.2262V46.0336C31.2262 45.2751 30.9308 44.5477 30.4048 44.0111C29.8789 43.4745 29.1654 43.1726 28.4212 43.1717H26.3607C26.2756 43.1717 26.194 43.1373 26.1338 43.0759C26.0736 43.0146 26.0398 42.9314 26.0398 42.8447V42.0401C25.6048 42.2886 25.1166 42.4245 24.618 42.4358C24.1173 42.4217 23.6282 42.2788 23.1962 42.0205V42.8806C23.1962 42.9674 23.1624 43.0506 23.1022 43.1119C23.042 43.1733 22.9604 43.2077 22.8753 43.2077H20.8148C20.0706 43.2086 19.3571 43.5105 18.8311 44.0471C18.3052 44.5837 18.0098 45.3111 18.0098 46.0696L18.0354 47.1587Z" fill="#1D2939"/>
<path d="M31.6461 47.3472V45.952C31.6461 45.5485 31.5644 45.1491 31.4056 44.7763C31.2468 44.4036 31.0141 44.0649 30.7207 43.7797C30.4273 43.4944 30.079 43.2681 29.6957 43.1137C29.3124 42.9593 28.9015 42.8799 28.4866 42.8799H27.9855L25.8152 45.6799L24.6958 44.8604L23.5732 45.6799L21.4159 42.8925H20.7879C19.95 42.8925 19.1463 43.2162 18.5538 43.7923C17.9613 44.3685 17.6284 45.1499 17.6284 45.9646V47.3599L31.6461 47.3472Z" fill="#F16C7A"/>
<path d="M31.5375 47.7867H17.737C17.6518 47.7867 17.5702 47.753 17.51 47.693C17.4498 47.633 17.416 47.5516 17.416 47.4667V46.0555C17.4245 45.155 17.7888 44.294 18.4299 43.6596C19.071 43.0251 19.9372 42.6684 20.8405 42.6667H21.4599C21.5242 42.6687 21.5864 42.6899 21.6385 42.7276C21.6906 42.7652 21.7301 42.8176 21.752 42.8779L23.6487 45.3835L24.5089 44.7435C24.5632 44.705 24.6283 44.6842 24.695 44.6842C24.7617 44.6842 24.8268 44.705 24.8812 44.7435L25.7381 45.3835L27.6638 42.8555C27.6859 42.8004 27.724 42.7531 27.7731 42.7195C27.8222 42.6859 27.8802 42.6675 27.9398 42.6667H28.434C29.3417 42.6684 30.2118 43.0287 30.8536 43.6687C31.4955 44.3086 31.8568 45.1761 31.8585 46.0811V47.4923C31.852 47.5727 31.8154 47.6477 31.7559 47.7022C31.6964 47.7568 31.6184 47.787 31.5375 47.7867ZM18.0354 47.1723H31.2262V46.0683C31.2254 45.3269 30.9296 44.616 30.4037 44.0916C29.8778 43.5673 29.1649 43.2724 28.4212 43.2715H28.1002L26.0462 45.9883C25.9951 46.0512 25.922 46.0925 25.8416 46.1038C25.7612 46.1151 25.6795 46.0955 25.6129 46.0491L24.695 45.3579L23.7739 46.0491C23.7074 46.0955 23.6257 46.1151 23.5453 46.1038C23.4649 46.0925 23.3918 46.0512 23.3406 45.9883L21.2866 43.2715H20.8405C20.0968 43.2724 19.3838 43.5673 18.858 44.0916C18.3321 44.616 18.0363 45.3269 18.0354 46.0683V47.1723Z" fill="#1D2939"/>
<path fill-rule="evenodd" clip-rule="evenodd" d="M20.6017 35.0933C20.6017 35.3253 20.5269 35.5522 20.3869 35.7451C20.2469 35.9381 20.0478 36.0885 19.815 36.1773C19.5821 36.2661 19.3259 36.2893 19.0787 36.244C18.8315 36.1988 18.6044 36.087 18.4262 35.9229C18.248 35.7588 18.1266 35.5498 18.0775 35.3222C18.0283 35.0946 18.0535 34.8586 18.15 34.6442C18.2464 34.4298 18.4098 34.2466 18.6193 34.1177C18.8289 33.9887 19.0753 33.9199 19.3273 33.9199C19.6653 33.9199 19.9894 34.0435 20.2284 34.2636C20.4674 34.4836 20.6017 34.7821 20.6017 35.0933Z" fill="#FCE8CB"/>
<path d="M19.2247 36.6934C18.9093 36.6941 18.6009 36.6007 18.3384 36.4252C18.076 36.2496 17.8713 35.9997 17.7503 35.7072C17.6293 35.4147 17.5975 35.0928 17.6589 34.7821C17.7202 34.4714 17.872 34.186 18.095 33.962C18.3179 33.7381 18.6021 33.5856 18.9114 33.524C19.2207 33.4624 19.5413 33.4943 19.8325 33.6158C20.1237 33.7374 20.3724 33.9429 20.5472 34.2066C20.722 34.4702 20.8149 34.78 20.8143 35.0967C20.8134 35.5199 20.6456 35.9255 20.3477 36.2248C20.0498 36.524 19.646 36.6925 19.2247 36.6934ZM19.2247 34.1414C19.0366 34.1414 18.8527 34.1975 18.6963 34.3024C18.5399 34.4074 18.4179 34.5566 18.346 34.7312C18.274 34.9057 18.2551 35.0978 18.2918 35.2831C18.3285 35.4684 18.4191 35.6387 18.5521 35.7723C18.6851 35.9059 18.8546 35.9969 19.0391 36.0337C19.2236 36.0706 19.4148 36.0517 19.5886 35.9794C19.7624 35.907 19.911 35.7846 20.0155 35.6275C20.12 35.4704 20.1758 35.2857 20.1758 35.0967C20.1775 34.9702 20.1542 34.8445 20.1072 34.7271C20.0602 34.6096 19.9904 34.5027 19.9019 34.4126C19.8134 34.3224 19.708 34.2509 19.5917 34.202C19.4755 34.1532 19.3507 34.128 19.2247 34.1281V34.1414Z" fill="#1D2939"/>
<path d="M22.5542 42.0452L21.4402 42.8884L23.5883 45.7518L24.7024 44.9086L22.5542 42.0452Z" fill="#475467"/>
<path d="M23.659 46.0799C23.6118 46.0792 23.5654 46.068 23.5231 46.047C23.4808 46.026 23.4437 45.9959 23.4145 45.9587L21.2963 43.1359C21.2503 43.0697 21.2309 42.9885 21.2421 42.9086C21.2533 42.8287 21.2942 42.756 21.3567 42.7052L22.4554 41.8759C22.5202 41.8277 22.6008 41.8061 22.6809 41.8153C22.7617 41.828 22.8345 41.8714 22.8842 41.9365L25.0023 44.7594C25.0492 44.8249 25.0696 44.9058 25.0595 44.9858C25.0477 45.0665 25.0057 45.1395 24.942 45.19L23.8432 46.0193C23.7896 46.0583 23.7252 46.0795 23.659 46.0799ZM21.9696 43.0115L23.7193 45.3431L24.3291 44.8838L22.5793 42.549L21.9696 43.0115Z" fill="#1D2939"/>
<path d="M24.6928 44.9102L25.8069 45.7534L27.955 42.89L26.841 42.0468L24.6928 44.9102Z" fill="#475467"/>
<path d="M25.8269 46.0799C25.7608 46.0795 25.6964 46.0583 25.6429 46.0193L24.5448 45.1864C24.4811 45.1359 24.4391 45.0628 24.4273 44.9822C24.4172 44.9021 24.4376 44.8211 24.4845 44.7556L26.6013 41.9315C26.6519 41.8687 26.7242 41.8276 26.8037 41.8163C26.8832 41.8051 26.964 41.8246 27.0298 41.8708L28.1278 42.7005C28.1915 42.751 28.2335 42.8241 28.2453 42.9047C28.2554 42.9848 28.235 43.0658 28.1881 43.1313L26.0713 45.9554C26.0424 45.9932 26.0055 46.024 25.9632 46.0455C25.9209 46.0671 25.8743 46.0788 25.8269 46.0799ZM25.1573 44.8832L25.7666 45.3428L27.5153 43.01L26.8933 42.5473L25.1573 44.8832Z" fill="#1D2939"/>
<path fill-rule="evenodd" clip-rule="evenodd" d="M31.2213 35.0933C31.2213 35.3253 31.1465 35.5522 31.0065 35.7451C30.8665 35.9381 30.6675 36.0885 30.4346 36.1773C30.2018 36.2661 29.9455 36.2893 29.6983 36.244C29.4511 36.1988 29.2241 36.087 29.0459 35.9229C28.8676 35.7588 28.7463 35.5498 28.6971 35.3222C28.6479 35.0946 28.6732 34.8586 28.7696 34.6442C28.8661 34.4298 29.0294 34.2466 29.239 34.1177C29.4485 33.9887 29.6949 33.9199 29.9469 33.9199C30.2849 33.9199 30.6091 34.0435 30.848 34.2636C31.087 34.4836 31.2213 34.7821 31.2213 35.0933Z" fill="#FCE8CB"/>
<path d="M30.0531 36.6934C29.7381 36.6934 29.4301 36.5996 29.1681 36.4238C28.9062 36.2479 28.702 35.9981 28.5815 35.7057C28.4609 35.4133 28.4293 35.0916 28.4908 34.7813C28.5523 34.4709 28.704 34.1858 28.9268 33.962C29.1495 33.7383 29.4334 33.5859 29.7424 33.5242C30.0514 33.4624 30.3716 33.4941 30.6627 33.6152C30.9538 33.7363 31.2026 33.9414 31.3776 34.2045C31.5526 34.4676 31.646 34.777 31.646 35.0934C31.646 35.5178 31.4782 35.9247 31.1795 36.2248C30.8808 36.5248 30.4756 36.6934 30.0531 36.6934ZM30.0531 34.1414C29.8649 34.1414 29.6809 34.1975 29.5244 34.3027C29.3679 34.4078 29.246 34.5572 29.1741 34.7319C29.1022 34.9067 29.0836 35.099 29.1206 35.2844C29.1575 35.4698 29.2484 35.64 29.3818 35.7734C29.5151 35.9069 29.6849 35.9976 29.8696 36.0341C30.0543 36.0706 30.2457 36.0512 30.4194 35.9784C30.5931 35.9056 30.7414 35.7826 30.8456 35.6251C30.9497 35.4675 31.0049 35.2825 31.0042 35.0934C30.9999 34.8429 30.8977 34.6042 30.7198 34.4287C30.5419 34.2531 30.3025 34.1547 30.0531 34.1548V34.1414Z" fill="#1D2939"/>
<path d="M30.1592 34.5254C30.1592 37.5709 27.2254 42.2401 24.6371 42.2401C22.1694 42.2401 19.115 37.5709 19.115 34.5254C19.115 33.0635 19.6968 31.6615 20.7324 30.6278C21.768 29.5941 23.1726 29.0134 24.6371 29.0134C26.1017 29.0134 27.5062 29.5941 28.5418 30.6278C29.5774 31.6615 30.1592 33.0635 30.1592 34.5254Z" fill="#FCE8CB"/>
<path d="M24.6371 42.4534C21.9781 42.4534 18.9026 37.6661 18.9026 34.5397C18.9026 33.786 19.0509 33.0396 19.3391 32.3432C19.6273 31.6469 20.0497 31.0141 20.5822 30.4812C21.1147 29.9482 21.7469 29.5254 22.4426 29.237C23.1383 28.9485 23.884 28.8 24.6371 28.8C25.3902 28.8 26.1359 28.9485 26.8316 29.237C27.5274 29.5254 28.1595 29.9482 28.692 30.4812C29.2245 31.0141 29.6469 31.6469 29.9351 32.3432C30.2233 33.0396 30.3716 33.786 30.3716 34.5397C30.3716 37.7334 27.3506 42.4534 24.6371 42.4534ZM24.6371 29.4189C23.2776 29.4189 21.9739 29.9594 21.0126 30.9216C20.0513 31.8837 19.5113 33.1887 19.5113 34.5493C19.5113 37.323 22.3689 41.8441 24.6371 41.8441C26.9597 41.8441 29.7629 37.355 29.7629 34.5493C29.7629 33.1887 29.2229 31.8837 28.2616 30.9216C27.3003 29.9594 25.9966 29.4189 24.6371 29.4189Z" fill="#1D2939"/>
<path d="M23.1503 34.4533C23.1503 34.5585 23.1193 34.6614 23.0613 34.7489C23.0032 34.8365 22.9207 34.9048 22.824 34.9454C22.7274 34.9859 22.6209 34.9969 22.5181 34.9768C22.4153 34.9567 22.3207 34.9066 22.2462 34.8326C22.1717 34.7587 22.1206 34.6643 22.0994 34.5613C22.0782 34.4582 22.0878 34.3512 22.127 34.2536C22.1662 34.1561 22.2332 34.0723 22.3197 34.013C22.4062 33.9536 22.5082 33.9212 22.6129 33.92C22.6832 33.9191 22.7529 33.9323 22.8181 33.9587C22.8833 33.9851 22.9426 34.0243 22.9925 34.0739C23.0425 34.1235 23.0822 34.1826 23.1093 34.2477C23.1364 34.3128 23.1503 34.3827 23.1503 34.4533Z" fill="#1D2939"/>
<path d="M27.1857 34.4533C27.1857 34.5591 27.1544 34.6624 27.0958 34.7503C27.0371 34.8381 26.9538 34.9064 26.8564 34.9466C26.759 34.9868 26.6519 34.997 26.5488 34.9759C26.4456 34.9547 26.351 34.9033 26.277 34.8281C26.203 34.7528 26.153 34.6572 26.1332 34.5533C26.1135 34.4494 26.1249 34.342 26.1661 34.2447C26.2072 34.1473 26.2763 34.0645 26.3645 34.0067C26.4526 33.9489 26.5559 33.9187 26.6612 33.92C26.8009 33.9217 26.9343 33.9786 27.0325 34.0784C27.1307 34.1783 27.1857 34.313 27.1857 34.4533Z" fill="#1D2939"/>
<path d="M22.5133 36.0533C22.5133 36.4049 22.1341 36.6933 21.6653 36.6933C21.1964 36.6933 20.8142 36.3929 20.8142 36.0533C20.8142 35.7138 21.1934 35.4133 21.6653 35.4133C22.1371 35.4133 22.5133 35.6988 22.5133 36.0533Z" fill="#F5978A"/>
<path d="M28.4601 36.0533C28.4601 36.4049 28.0809 36.6933 27.6091 36.6933C27.1372 36.6933 26.761 36.3929 26.761 36.0533C26.761 35.7138 27.1402 35.4133 27.6091 35.4133C28.0779 35.4133 28.4601 35.6988 28.4601 36.0533Z" fill="#F5978A"/>
<path d="M24.6343 39.2508C24.2783 39.2705 23.9251 39.1743 23.6226 38.9753C23.32 38.7762 23.0827 38.4839 22.9427 38.1379C22.931 38.0686 22.9412 37.9971 22.9717 37.9345C23.0022 37.872 23.0514 37.8217 23.1116 37.7913C23.1718 37.761 23.2397 37.7524 23.305 37.7668C23.3703 37.7812 23.4293 37.8177 23.473 37.8709C23.566 38.1107 23.7283 38.3135 23.9368 38.4503C24.1453 38.5872 24.3894 38.6512 24.6343 38.6332C24.8737 38.6435 25.1106 38.5791 25.3156 38.4481C25.5205 38.3171 25.6843 38.1253 25.7865 37.8966C25.826 37.8404 25.8818 37.7992 25.9454 37.7795C26.0091 37.7597 26.0771 37.7624 26.1391 37.7872C26.2012 37.8119 26.2539 37.8573 26.2893 37.9166C26.3247 37.9758 26.3407 38.0456 26.3351 38.1154C26.1909 38.4618 25.952 38.7548 25.649 38.9571C25.346 39.1594 24.9927 39.2617 24.6343 39.2508Z" fill="#1D2939"/>
<path d="M30.7964 32.5243C30.7963 33.0676 30.7261 33.6086 30.5875 34.1333C29.2147 33.4575 27.9125 32.6424 26.7008 31.7005C26.3432 31.427 25.995 31.1438 25.6627 30.8413C25.25 30.4764 24.8659 30.0794 24.5138 29.6538C23.7742 28.709 23.1719 27.6611 22.7256 26.542C23.6522 26.2388 24.6363 26.1625 25.5974 26.3194C26.5586 26.4763 27.4697 26.8618 28.2565 27.4447C29.0433 28.0276 29.6834 28.7912 30.1248 29.6734C30.5662 30.5556 30.7963 31.5313 30.7964 32.5211V32.5243Z" fill="#475467"/>
<path d="M30.6973 34.3466C30.6501 34.3451 30.6036 34.3342 30.5607 34.3143C29.1315 33.6257 27.7747 32.7983 26.5103 31.8442C26.1004 31.5218 25.7425 31.2477 25.427 30.9671C24.9917 30.5909 24.586 30.1824 24.2135 29.745C23.4317 28.776 22.7961 27.6995 22.3265 26.5494C22.3095 26.5096 22.3008 26.4668 22.3008 26.4236C22.3008 26.3804 22.3095 26.3376 22.3265 26.2979C22.3451 26.2588 22.3713 26.2239 22.4037 26.1951C22.4362 26.1663 22.4741 26.1442 22.5152 26.1302C23.5149 25.8117 24.5763 25.7318 25.6129 25.897C26.6496 26.0621 27.6323 26.4677 28.4809 27.0806C29.3295 27.6935 30.02 28.4965 30.4962 29.424C30.9724 30.3516 31.2208 31.3775 31.2211 32.4182C31.2221 32.991 31.1466 33.5613 30.9966 34.1144C30.9856 34.1591 30.9643 34.2007 30.9344 34.2359C30.9044 34.2711 30.8668 34.2991 30.8242 34.3175C30.7847 34.3365 30.7413 34.3465 30.6973 34.3466ZM23.0455 26.6268C23.47 27.603 24.0248 28.5184 24.695 29.3484C25.0472 29.7608 25.43 30.1467 25.8401 30.5028C26.1459 30.7737 26.4908 31.0478 26.891 31.3509C28.0128 32.2012 29.2106 32.9481 30.4696 33.5823C30.5452 33.1988 30.5833 32.809 30.5835 32.4182C30.5835 30.8315 29.9478 29.3097 28.8161 28.1874C27.6844 27.0651 26.1494 26.4342 24.5486 26.4333C24.0412 26.4336 23.5361 26.4986 23.0455 26.6268Z" fill="#1D2939"/>
<path d="M29.0876 28.182C28.0027 29.1518 26.8324 30.0236 25.5905 30.7871C23.3499 32.1414 20.9738 33.2627 18.5 34.1333C18.345 33.5845 18.266 33.0173 18.2654 32.4475C18.2657 31.2049 18.6427 29.991 19.3477 28.9628C20.0527 27.9346 21.0532 27.1394 22.2198 26.68C23.3864 26.2206 24.6655 26.1181 25.8916 26.3859C27.1177 26.6536 28.2344 27.2793 29.0972 28.182H29.0876Z" fill="#475467"/>
<path d="M18.5965 34.5599C18.5481 34.5596 18.5006 34.5472 18.458 34.5239C18.4197 34.505 18.3858 34.478 18.3586 34.4447C18.3314 34.4114 18.3115 34.3726 18.3002 34.3309C17.9003 32.8892 17.9874 31.3529 18.5476 29.9674C19.1078 28.5819 20.1088 27.4271 21.3907 26.6873C22.6727 25.9476 24.1616 25.6656 25.6197 25.8864C27.0779 26.1073 28.4211 26.8181 29.435 27.9055C29.4922 27.9675 29.5233 28.0496 29.522 28.1345C29.5174 28.2195 29.4804 28.2993 29.4189 28.357C28.3202 29.3675 27.1348 30.2762 25.8769 31.0724C23.6079 32.4742 21.2014 33.632 18.6963 34.5272C18.665 34.5436 18.6313 34.5546 18.5965 34.5599ZM24.6469 26.4399C24.0246 26.4386 23.4062 26.538 22.8147 26.7343C21.6097 27.1251 20.5586 27.8959 19.814 28.9349C19.0694 29.9738 18.67 31.2267 18.6738 32.5119C18.6727 32.9521 18.7202 33.3911 18.8154 33.8205C21.1614 32.9573 23.4151 31.8546 25.542 30.5293C26.6786 29.8117 27.7555 29.001 28.762 28.1051C27.6521 27.0268 26.1728 26.4296 24.6372 26.4399H24.6469Z" fill="#1D2939"/>
<path d="M10.4602 4.02344H4.61946C4.17959 4.02344 3.823 4.38161 3.823 4.82344V9.4101C3.823 9.85193 4.17959 10.2101 4.61946 10.2101H10.4602C10.9 10.2101 11.2566 9.85193 11.2566 9.4101V4.82344C11.2566 4.38161 10.9 4.02344 10.4602 4.02344Z" fill="#FCE8CB"/>
<path d="M10.4601 10.53H4.61944C4.32408 10.53 4.04078 10.4123 3.83173 10.2028C3.62268 9.99317 3.50496 9.70884 3.50439 9.41217V4.82337C3.50496 4.5265 3.62261 4.24195 3.8316 4.03203C4.04059 3.82211 4.32388 3.70393 4.61944 3.70337H10.4601C10.7557 3.70393 11.039 3.82211 11.248 4.03203C11.457 4.24195 11.5746 4.5265 11.5752 4.82337V9.41217C11.5746 9.70884 11.4569 9.99317 11.2479 10.2028C11.0388 10.4123 10.7555 10.53 10.4601 10.53ZM4.61944 4.34337C4.4927 4.34337 4.37115 4.39394 4.28153 4.48396C4.19191 4.57398 4.14156 4.69607 4.14156 4.82337V9.41217C4.14156 9.4751 4.15394 9.53742 4.17798 9.59553C4.20202 9.65365 4.23725 9.70643 4.28166 9.75083C4.32606 9.79523 4.37876 9.83039 4.43672 9.85427C4.49469 9.87816 4.55678 9.89032 4.61944 9.89004H10.4601C10.5228 9.89032 10.5849 9.87816 10.6429 9.85427C10.7008 9.83039 10.7535 9.79523 10.7979 9.75083C10.8423 9.70643 10.8776 9.65365 10.9016 9.59553C10.9256 9.53742 10.938 9.4751 10.938 9.41217V4.82337C10.938 4.69607 10.8877 4.57398 10.7981 4.48396C10.7084 4.39394 10.5869 4.34337 10.4601 4.34337H4.61944Z" fill="#1D2939"/>
<path d="M11.2566 13.3036H3.82298C3.73848 13.3036 3.65745 13.2699 3.59771 13.2098C3.53796 13.1498 3.50439 13.0684 3.50439 12.9836C3.50439 12.8987 3.53796 12.8173 3.59771 12.7573C3.65745 12.6973 3.73848 12.6636 3.82298 12.6636H11.2566C11.3411 12.6636 11.4221 12.6973 11.4819 12.7573C11.5416 12.8173 11.5752 12.8987 11.5752 12.9836C11.5752 13.0684 11.5416 13.1498 11.4819 13.2098C11.4221 13.2699 11.3411 13.3036 11.2566 13.3036Z" fill="#1D2939"/>
<path d="M11.2566 16.7169H3.82298C3.73848 16.7169 3.65745 16.6832 3.59771 16.6232C3.53796 16.5632 3.50439 16.4818 3.50439 16.3969C3.50439 16.312 3.53796 16.2306 3.59771 16.1706C3.65745 16.1106 3.73848 16.0769 3.82298 16.0769H11.2566C11.3411 16.0769 11.4221 16.1106 11.4819 16.1706C11.5416 16.2306 11.5752 16.312 11.5752 16.3969C11.5752 16.4818 11.5416 16.5632 11.4819 16.6232C11.4221 16.6832 11.3411 16.7169 11.2566 16.7169Z" fill="#1D2939"/>
<path d="M11.2566 20.1302H3.82298C3.73848 20.1302 3.65745 20.0965 3.59771 20.0365C3.53796 19.9765 3.50439 19.8951 3.50439 19.8102C3.50439 19.7254 3.53796 19.644 3.59771 19.584C3.65745 19.5239 3.73848 19.4902 3.82298 19.4902H11.2566C11.3411 19.4902 11.4221 19.5239 11.4819 19.584C11.5416 19.644 11.5752 19.7254 11.5752 19.8102C11.5752 19.8951 11.5416 19.9765 11.4819 20.0365C11.4221 20.0965 11.3411 20.1302 11.2566 20.1302Z" fill="#1D2939"/>
<path d="M43.3806 4.02344H37.5399C37.1 4.02344 36.7434 4.38161 36.7434 4.82344V9.4101C36.7434 9.85193 37.1 10.2101 37.5399 10.2101H43.3806C43.8204 10.2101 44.177 9.85193 44.177 9.4101V4.82344C44.177 4.38161 43.8204 4.02344 43.3806 4.02344Z" fill="#FCE8CB"/>
<path d="M43.3806 10.53H37.5398C37.2445 10.53 36.9612 10.4123 36.7521 10.2028C36.5431 9.99317 36.4254 9.70884 36.4248 9.41217V4.82337C36.4254 4.5265 36.543 4.24195 36.752 4.03203C36.961 3.82211 37.2443 3.70393 37.5398 3.70337H43.3806C43.6761 3.70393 43.9594 3.82211 44.1684 4.03203C44.3774 4.24195 44.495 4.5265 44.4956 4.82337V9.41217C44.495 9.70884 44.3773 9.99317 44.1683 10.2028C43.9592 10.4123 43.6759 10.53 43.3806 10.53ZM37.5398 4.34337C37.4131 4.34337 37.2916 4.39394 37.2019 4.48396C37.1123 4.57398 37.062 4.69607 37.062 4.82337V9.41217C37.062 9.4751 37.0743 9.53742 37.0984 9.59553C37.1224 9.65365 37.1577 9.70643 37.2021 9.75083C37.2465 9.79523 37.2992 9.83039 37.3571 9.85427C37.4151 9.87816 37.4772 9.89032 37.5398 9.89004H43.3806C43.4432 9.89032 43.5053 9.87816 43.5633 9.85427C43.6212 9.83039 43.6739 9.79523 43.7183 9.75083C43.7627 9.70643 43.798 9.65365 43.822 9.59553C43.8461 9.53742 43.8584 9.4751 43.8584 9.41217V4.82337C43.8584 4.69607 43.8081 4.57398 43.7185 4.48396C43.6288 4.39394 43.5073 4.34337 43.3806 4.34337H37.5398Z" fill="#1D2939"/>
<path d="M44.177 13.3036H36.7434C36.6589 13.3036 36.5779 13.2699 36.5181 13.2098C36.4584 13.1498 36.4248 13.0684 36.4248 12.9836C36.4248 12.8987 36.4584 12.8173 36.5181 12.7573C36.5779 12.6973 36.6589 12.6636 36.7434 12.6636H44.177C44.2615 12.6636 44.3425 12.6973 44.4023 12.7573C44.462 12.8173 44.4956 12.8987 44.4956 12.9836C44.4956 13.0684 44.462 13.1498 44.4023 13.2098C44.3425 13.2699 44.2615 13.3036 44.177 13.3036Z" fill="#1D2939"/>
<path d="M44.177 16.7169H36.7434C36.6589 16.7169 36.5779 16.6832 36.5181 16.6232C36.4584 16.5632 36.4248 16.4818 36.4248 16.3969C36.4248 16.312 36.4584 16.2306 36.5181 16.1706C36.5779 16.1106 36.6589 16.0769 36.7434 16.0769H44.177C44.2615 16.0769 44.3425 16.1106 44.4023 16.1706C44.462 16.2306 44.4956 16.312 44.4956 16.3969C44.4956 16.4818 44.462 16.5632 44.4023 16.6232C44.3425 16.6832 44.2615 16.7169 44.177 16.7169Z" fill="#1D2939"/>
<path d="M44.177 20.1302H36.7434C36.6589 20.1302 36.5779 20.0965 36.5181 20.0365C36.4584 19.9765 36.4248 19.8951 36.4248 19.8102C36.4248 19.7254 36.4584 19.644 36.5181 19.584C36.5779 19.5239 36.6589 19.4902 36.7434 19.4902H44.177C44.2615 19.4902 44.3425 19.5239 44.4023 19.584C44.462 19.644 44.4956 19.7254 44.4956 19.8102C44.4956 19.8951 44.462 19.9765 44.4023 20.0365C44.3425 20.0965 44.2615 20.1302 44.177 20.1302Z" fill="#1D2939"/>
<path d="M44.0474 0.639895H40.8616C41.7403 0.64046 42.583 0.991201 43.2045 1.61514C43.8261 2.23908 44.1758 3.08523 44.177 3.9679V4.04043C44.3815 4.24917 44.496 4.53046 44.4956 4.82336V9.41003C44.496 9.70293 44.3815 9.98422 44.177 10.193V12.6634C44.2615 12.6634 44.3425 12.6971 44.4022 12.7571C44.462 12.8171 44.4956 12.8985 44.4956 12.9834C44.4956 13.0682 44.462 13.1496 44.4022 13.2096C44.3425 13.2696 44.2615 13.3034 44.177 13.3034V16.0767C44.2615 16.0767 44.3425 16.1104 44.4022 16.1704C44.462 16.2304 44.4956 16.3118 44.4956 16.3967C44.4956 16.4816 44.462 16.563 44.4022 16.623C44.3425 16.683 44.2615 16.7167 44.177 16.7167V19.49C44.2615 19.49 44.3425 19.5237 44.4022 19.5838C44.462 19.6438 44.4956 19.7252 44.4956 19.81C44.4956 19.8949 44.462 19.9763 44.4022 20.0363C44.3425 20.0963 44.2615 20.13 44.177 20.13V24.977C45.2163 25.5106 46.1665 26.2037 46.9933 27.0314C47.0497 27.0909 47.0812 27.1699 47.0812 27.2522C47.0812 27.3344 47.0497 27.4135 46.9933 27.473C46.5862 27.8845 46.1457 28.2612 45.6764 28.5994C46.3639 29.5623 46.7351 30.7168 46.7384 31.9018V31.9615C46.7434 32.0989 46.7384 32.2365 46.7235 32.3732C46.9128 32.4587 47.0832 32.5813 47.2248 32.7338C47.3205 32.4192 47.3692 32.0921 47.3692 31.7631V3.9679C47.3686 3.5303 47.2823 3.09709 47.115 2.69302C46.9478 2.28894 46.703 1.92191 46.3945 1.61288C46.086 1.30384 45.72 1.05886 45.3173 0.891916C44.9146 0.724971 44.4831 0.639335 44.0474 0.639895Z" fill="#FF8C4B"/>
</g>
<defs>
<clipPath id="clip0_5621_15735">
<rect width="48" height="48" fill="white"/>
</clipPath>
</defs>
</svg>
